<svg width="22" height="22" viewBox="0 0 22 22" fill="none" xmlns="http://www.w3.org/2000/svg">
<circle cx="11" cy="11" r="10.5" stroke="#636363"/>
<path d="M10.33 12.52C10.33 12.15 10.39 11.825 10.51 11.545C10.63 11.265 10.785 11.015 10.975 10.795C11.165 10.575 11.365 10.37 11.575 10.18C11.795 9.99 12 9.805 12.19 9.625C12.38 9.445 12.535 9.255 12.655 9.055C12.775 8.855 12.835 8.63 12.835 8.38C12.835 7.96 12.665 7.62 12.325 7.36C11.985 7.1 11.53 6.97 10.96 6.97C10.41 6.97 9.93 7.07 9.52 7.27C9.12 7.47 8.785 7.755 8.515 8.125L7.06 7.18C7.48 6.61 8.03 6.165 8.71 5.845C9.39 5.515 10.195 5.35 11.125 5.35C11.855 5.35 12.495 5.46 13.045 5.68C13.595 5.89 14.025 6.2 14.335 6.61C14.645 7.01 14.8 7.5 14.8 8.08C14.8 8.48 14.735 8.83 14.605 9.13C14.485 9.43 14.325 9.695 14.125 9.925C13.935 10.145 13.73 10.355 13.51 10.555C13.29 10.745 13.08 10.935 12.88 11.125C12.69 11.315 12.535 11.52 12.415 11.74C12.295 11.96 12.235 12.22 12.235 12.52H10.33ZM11.29 16.105C10.94 16.105 10.65 15.99 10.42 15.76C10.2 15.53 10.09 15.255 10.09 14.935C10.09 14.615 10.2 14.345 10.42 14.125C10.65 13.895 10.94 13.78 11.29 13.78C11.64 13.78 11.925 13.895 12.145 14.125C12.365 14.345 12.475 14.615 12.475 14.935C12.475 15.255 12.365 15.53 12.145 15.76C11.925 15.99 11.64 16.105 11.29 16.105Z" fill="#636363"/>
</svg>
