<svg width="16" height="32" viewBox="0 0 16 32" fill="none" xmlns="http://www.w3.org/2000/svg">
<rect x="0.5" y="0.5" width="8" height="31" stroke="#636363"/>
<path d="M6 4.5C5.72386 4.5 5.5 4.72386 5.5 5C5.5 5.27614 5.72386 5.5 6 5.5V4.5ZM6 5.5H8.5V4.5H6V5.5Z" fill="#636363"/>
<path d="M6 7.5C5.72386 7.5 5.5 7.72386 5.5 8C5.5 8.27614 5.72386 8.5 6 8.5V7.5ZM6 8.5H8.5V7.5H6V8.5Z" fill="#636363"/>
<path d="M6 13.5C5.72386 13.5 5.5 13.7239 5.5 14C5.5 14.2761 5.72386 14.5 6 14.5V13.5ZM6 14.5H8.5V13.5H6V14.5Z" fill="#636363"/>
<path d="M6 16.5C5.72386 16.5 5.5 16.7239 5.5 17C5.5 17.2761 5.72386 17.5 6 17.5V16.5ZM6 17.5H8.5V16.5H6V17.5Z" fill="#636363"/>
<path d="M6 23.5C5.72386 23.5 5.5 23.7239 5.5 24C5.5 24.2761 5.72386 24.5 6 24.5V23.5ZM6 24.5H8.5V23.5H6V24.5Z" fill="#636363"/>
<path d="M6 26.5C5.72386 26.5 5.5 26.7239 5.5 27C5.5 27.2761 5.72386 27.5 6 27.5V26.5ZM6 27.5H8.5V26.5H6V27.5Z" fill="#636363"/>
<path d="M5 10.5C4.72386 10.5 4.5 10.7239 4.5 11C4.5 11.2761 4.72386 11.5 5 11.5V10.5ZM5 11.5L9 11.5V10.5L5 10.5V11.5Z" fill="#636363"/>
<path d="M5 20.5C4.72386 20.5 4.5 20.7239 4.5 21C4.5 21.2761 4.72386 21.5 5 21.5V20.5ZM5 21.5H9V20.5H5V21.5Z" fill="#636363"/>
<path d="M13 2L10.1132 7H15.8868L13 2ZM13 31L15.8868 26H10.1132L13 31ZM12.5 6.5V26.5H13.5V6.5H12.5Z" fill="#636363"/>
</svg>
