<svg width="32" height="32" viewBox="0 0 32 32" fill="none" xmlns="http://www.w3.org/2000/svg">
<circle cx="16" cy="16" r="14.5" stroke="white" stroke-width="3"/>
<path d="M26.1893 17.3513C26.7416 17.3513 27.1893 16.9036 27.1893 16.3513C27.1893 15.799 26.7416 15.3513 26.1893 15.3513V17.3513ZM5.80649 15.6442C5.41596 16.0347 5.41596 16.6679 5.80649 17.0584L12.1705 23.4224C12.561 23.8129 13.1941 23.8129 13.5847 23.4224C13.9752 23.0319 13.9752 22.3987 13.5847 22.0082L7.92781 16.3513L13.5847 10.6945C13.9752 10.3039 13.9752 9.67077 13.5847 9.28025C13.1941 8.88973 12.561 8.88973 12.1705 9.28025L5.80649 15.6442ZM26.1893 15.3513L6.5136 15.3513V17.3513L26.1893 17.3513V15.3513Z" fill="white"/>
</svg>
