<svg width="90" height="53" viewBox="0 0 90 53" fill="none" xmlns="http://www.w3.org/2000/svg">
<path d="M2.9899 22.3131L18.9714 1.5H27.6883L17.3081 22.6461L2.9899 22.3131Z" stroke="#34AB81" stroke-width="3"/>
<path d="M86.5328 21.1573L72.7205 1.5H64.2138L72.4633 22.1623L86.5328 21.1573Z" stroke="#34AB81" stroke-width="3"/>
<path d="M24.3162 10.796L28.4834 1.5H39.1186L36.9944 10.796H24.3162Z" stroke="#34AB81" stroke-width="3"/>
<path d="M53.3802 10.5L52.6302 1.5H64.2046L66.1426 10.5H53.3802Z" stroke="#34AB81" stroke-width="3"/>
<path d="M12.5781 33.5L23.4479 10.636H36.8174L32.6944 33.5H12.5781Z" stroke="#34AB81" stroke-width="3"/>
<path d="M57.0294 34.0136L53.2804 10.3949L66.6612 10.7471L77.183 33.2938L57.0294 34.0136Z" stroke="#34AB81" stroke-width="3"/>
<path d="M29.7921 50.652L38.5835 1.5H50.0544L58.4462 50.652H29.7921Z" stroke="#34AB81" stroke-width="3"/>
</svg>
