<svg width="67" height="65" viewBox="0 0 67 65" fill="none" xmlns="http://www.w3.org/2000/svg">
<path d="M22.3333 37.5834H2V46.4792H22.3333V37.5834Z" stroke="#34AB81" stroke-width="3"/>
<path d="M33.7707 46.4791H12.1665V54.1041H33.7707V46.4791Z" stroke="#34AB81" stroke-width="3"/>
<path d="M22.3333 54.1041H2V63H22.3333V54.1041Z" stroke="#34AB81" stroke-width="3"/>
<path d="M43.9377 54.1041H22.3335V63H43.9377V54.1041Z" stroke="#34AB81" stroke-width="3"/>
<path d="M64.2708 54.1041H43.9375V63H64.2708V54.1041Z" stroke="#34AB81" stroke-width="3"/>
<path d="M12.1667 46.4791H2V54.1041H12.1667V46.4791Z" stroke="#34AB81" stroke-width="3"/>
<path d="M54.253 10.6451L53.1081 9.56448L60.8361 2L64.2708 4.59354L56.5428 12.8064L55.1689 11.5096M54.253 10.6451L49.4588 15.3999M54.253 10.6451L55.1689 11.5096M49.4588 15.3999H38.5107L32.5 33.7708L50.7468 26.4225L50.1533 16.2645M49.4588 15.3999H50.1028L50.1533 16.2645M50.1533 16.2645L55.1689 11.5096" stroke="#34AB81" stroke-width="3"/>
</svg>
