<svg width="85" height="60" viewBox="0 0 85 60" fill="none" xmlns="http://www.w3.org/2000/svg">
<path d="M23.3764 2H2V11.0323H23.3764V2Z" stroke="#34AB81" stroke-width="3"/>
<path d="M46.5595 2H23.6777V11.0323H46.5595V2Z" stroke="#34AB81" stroke-width="3"/>
<path d="M38.7312 11.0322H17.0537V20.6667H38.7312V11.0322Z" stroke="#34AB81" stroke-width="3"/>
<path d="M38.7312 29.6992H17.0537V39.3337H38.7312V29.6992Z" stroke="#34AB81" stroke-width="3"/>
<path d="M23.6775 39.3334H2V48.3657H23.6775V39.3334Z" stroke="#34AB81" stroke-width="3"/>
<path d="M38.7312 48.3656H17.0537V58H38.7312V48.3656Z" stroke="#34AB81" stroke-width="3"/>
<path d="M47.1617 39.3334H23.6777V48.3657H47.1617V39.3334Z" stroke="#34AB81" stroke-width="3"/>
<path d="M62.2154 29.6992H38.7314V39.3337H62.2154V29.6992Z" stroke="#34AB81" stroke-width="3"/>
<path d="M83.2907 29.6992H62.2153V39.3337H83.2907V29.6992Z" stroke="#34AB81" stroke-width="3"/>
<path d="M68.237 39.3334H47.1616V48.3657H68.237V39.3334Z" stroke="#34AB81" stroke-width="3"/>
<path d="M62.2154 48.3656H38.7314V58H62.2154V48.3656Z" stroke="#34AB81" stroke-width="3"/>
<path d="M83.2907 48.3656H62.2153V58H83.2907V48.3656Z" stroke="#34AB81" stroke-width="3"/>
<path d="M23.6775 20.6667H2V29.699H23.6775V20.6667Z" stroke="#34AB81" stroke-width="3"/>
<path d="M47.1617 20.6667H23.6777V29.699H47.1617V20.6667Z" stroke="#34AB81" stroke-width="3"/>
<path d="M62.2154 11.0322H38.7314V20.6667H62.2154V11.0322Z" stroke="#34AB81" stroke-width="3"/>
<path d="M83.2907 11.0322H62.2153V20.6667H83.2907V11.0322Z" stroke="#34AB81" stroke-width="3"/>
<path d="M68.237 20.6667H47.1616V29.699H68.237V20.6667Z" stroke="#34AB81" stroke-width="3"/>
<path d="M68.2371 2H46.5596V11.0323H68.2371V2Z" stroke="#34AB81" stroke-width="3"/>
<path d="M17.0538 20.6667V11.0322H2V20.6667H17.0538Z" stroke="#34AB81" stroke-width="3"/>
<path d="M17.0538 39.3337V29.6992H2V39.3337H17.0538Z" stroke="#34AB81" stroke-width="3"/>
<path d="M83.2906 11.0323V2H68.2368V11.0323H83.2906Z" stroke="#34AB81" stroke-width="3"/>
<path d="M83.2906 29.699V20.6667H68.2368V29.699H83.2906Z" stroke="#34AB81" stroke-width="3"/>
<path d="M83.2906 48.3657V39.3334H68.2368V48.3657H83.2906Z" stroke="#34AB81" stroke-width="3"/>
<path d="M17.0538 58V48.3656H2V58H17.0538Z" stroke="#34AB81" stroke-width="3"/>
</svg>
