<svg width="32" height="32" viewBox="0 0 32 32" fill="none" xmlns="http://www.w3.org/2000/svg">
<circle cx="16" cy="16" r="14.5" stroke="#50D88C" stroke-width="3"/>
<path d="M26.1895 17.3513C26.7417 17.3513 27.1895 16.9036 27.1895 16.3513C27.1895 15.799 26.7417 15.3513 26.1895 15.3513V17.3513ZM5.80667 15.6442C5.41615 16.0347 5.41615 16.6679 5.80667 17.0584L12.1706 23.4224C12.5612 23.8129 13.1943 23.8129 13.5848 23.4224C13.9754 23.0319 13.9754 22.3987 13.5848 22.0082L7.92799 16.3513L13.5848 10.6945C13.9754 10.3039 13.9754 9.67077 13.5848 9.28025C13.1943 8.88973 12.5612 8.88973 12.1706 9.28025L5.80667 15.6442ZM26.1895 15.3513L6.51378 15.3513V17.3513L26.1895 17.3513V15.3513Z" fill="#50D88C"/>
</svg>
