<svg width="49" height="76" viewBox="0 0 49 76" fill="none" xmlns="http://www.w3.org/2000/svg">
<path d="M47.5002 7.47221V6.14839L46.1867 5.98384L17.51 2.39164L17.4172 2.38H17.3236H17.0859H15.5859V3.88V72.57V74.2679L17.2709 74.0586L46.1852 70.4664L47.5002 70.303V68.9778V7.47221Z" stroke="#34AB81" stroke-width="3"/>
<path d="M17.0857 9.26746H2V68.5294H16.9113" stroke="#34AB81" stroke-width="3"/>
<path d="M17.086 14.6549H7.02881V68.5294" stroke="#34AB81" stroke-width="3"/>
<path d="M23.1287 40.9187C23.1287 41.5568 22.9336 42.0764 22.6904 42.4021C22.4473 42.7277 22.2278 42.7858 22.1144 42.7858C22.0009 42.7858 21.7815 42.7277 21.5384 42.4021C21.2952 42.0764 21.1001 41.5568 21.1001 40.9187C21.1001 40.2805 21.2952 39.7609 21.5384 39.4352C21.7815 39.1097 22.0009 39.0515 22.1144 39.0515C22.2278 39.0515 22.4473 39.1097 22.6904 39.4352C22.9336 39.7609 23.1287 40.2805 23.1287 40.9187Z" stroke="#34AB81" stroke-width="3"/>
</svg>
