<svg width="68" height="72" viewBox="0 0 68 72" fill="none" xmlns="http://www.w3.org/2000/svg">
<path d="M17.4507 39.6234V63.1621" stroke="#34AB81" stroke-width="3"/>
<path d="M29.2207 39.6234V63.1621" stroke="#34AB81" stroke-width="3"/>
<path d="M62.5673 63.1621H5.682C0.451182 63.1621 1.10502 71.0084 5.682 70.3545H62.5673C67.1442 70.3545 67.1442 63.1621 62.5673 63.1621Z" stroke="#34AB81" stroke-width="3"/>
<path d="M40.9897 39.6234V63.1621" stroke="#34AB81" stroke-width="3"/>
<path d="M52.7598 39.6234V63.1621" stroke="#34AB81" stroke-width="3"/>
<path d="M5.68164 37.0081V60.5468" stroke="#34AB81" stroke-width="3"/>
<path d="M61.9131 37.0081V60.5468" stroke="#34AB81" stroke-width="3"/>
<path d="M6.15261 35.2384C6.15261 35.4933 5.94597 35.7 5.69105 35.7C5.43614 35.7 5.22949 35.4933 5.22949 35.2384C5.22949 34.9835 5.43614 34.7769 5.69105 34.7769C5.94597 34.7769 6.15261 34.9835 6.15261 35.2384Z" stroke="#34AB81" stroke-width="3"/>
<path d="M62.2761 35.278C62.2761 35.5329 62.0695 35.7395 61.8146 35.7395C61.5597 35.7395 61.353 35.5329 61.353 35.278C61.353 35.0231 61.5597 34.8164 61.8146 34.8164C62.0695 34.8164 62.2761 35.0231 62.2761 35.278Z" stroke="#34AB81" stroke-width="3"/>
<path d="M5.68164 63.1621V39.6234H61.913V63.1621" stroke="#34AB81" stroke-width="3"/>
<path d="M18.7593 39.74V12.2782M18.7593 12.2782C18.7593 -1.82605 47.5288 -1.82609 47.5288 12.2776M18.7593 12.2782L33.1441 12.2779M47.5288 12.2776V39.74M47.5288 12.2776L33.1441 12.2779M33.1441 12.2779V39.74" stroke="#34AB81" stroke-width="3"/>
</svg>
