<svg width="97" height="57" viewBox="0 0 97 57" fill="none" xmlns="http://www.w3.org/2000/svg">
<g filter="url(#filter0_d_603_9273)">
<path d="M8.51515 16.0641C7.13695 16.0641 7.21527 18.1987 7.50045 19.6782C7.57705 20.0756 7.57236 20.4868 7.45163 20.8731L7.22716 21.5914C7.0785 22.0671 6.63792 22.391 6.13952 22.391C5.51018 22.391 5 22.9012 5 23.5305V24.3203C5 24.9932 5.35061 25.6175 5.92521 25.9678L5.98864 26.0064C6.60263 26.3806 6.97727 27.0477 6.97727 27.7668V29.1952C6.97727 29.6767 7.06166 30.1545 7.2266 30.6069C7.49425 31.341 7.5477 32.1361 7.38072 32.8994L7.11812 34.0997C7.02532 34.524 7.02532 34.9632 7.11812 35.3875L7.44856 36.8979C7.55821 37.3992 8.00207 37.7564 8.51515 37.7564H9.76746C10.8015 37.7564 11.8005 37.3818 12.5795 36.7019L12.6292 36.6586C13.3762 36.0067 14.3342 35.6474 15.3258 35.6474H15.8478C16.6563 35.6474 17.4495 35.8671 18.1428 36.2831L19.8196 37.2891C20.2942 37.5738 20.8912 37.5557 21.3476 37.2428C21.7068 36.9965 22.1593 36.9294 22.5745 37.0608L23.6736 37.4086C24.39 37.6353 25.1578 37.6432 25.8788 37.4314L27.3806 36.99C27.6909 36.8989 28.0127 36.8526 28.3361 36.8526C29.0202 36.8526 29.6883 37.0596 30.2526 37.4465L30.615 37.695C31.5035 38.3042 32.623 38.4703 33.6501 38.1453L34.2137 37.9669C34.643 37.831 35.0099 37.5467 35.2485 37.1649C35.7808 36.3132 36.8853 36.025 37.7659 36.5081L38.2383 36.7672C38.3419 36.824 38.4495 36.8733 38.5602 36.9148L39.2215 37.1621C40.252 37.5475 41.1267 38.2621 41.7099 39.1951L42.1288 39.8654L43.5506 41.8152C43.9116 42.3102 44.1061 42.907 44.1061 43.5196C44.1061 43.8919 44.1779 44.2607 44.3177 44.6058L44.6661 45.4658C44.9916 46.2692 45.7717 46.7949 46.6385 46.7949H46.9423C47.2392 46.7949 47.5269 46.6917 47.7562 46.5031C48.1967 46.1406 48.8239 46.1131 49.2945 46.4358L49.8182 46.7949C50.8313 47.4124 52.1556 46.9299 52.5341 45.8054L53.1136 44.0833L53.4184 43.2473C53.7631 42.3021 54.6619 41.6731 55.6681 41.6731H55.7516C56.0401 41.6731 56.3252 41.7352 56.5876 41.8551C57.4946 42.2697 58.5686 41.9569 59.111 41.12L59.4363 40.6182C59.7406 40.1487 60.2619 39.8654 60.8213 39.8654C61.2335 39.8654 61.6319 39.7126 61.9269 39.4247C62.4161 38.947 63.0557 38.2826 63.4394 37.7564C63.801 37.2606 64.1832 36.1697 64.4586 35.2416C64.6721 34.5218 65.0006 33.8366 65.508 33.2833C66.21 32.5176 67.213 31.5054 68.3125 30.5878C68.8104 30.1723 69.5153 30.1369 70.0745 30.4655C70.4661 30.6957 70.7422 31.0805 70.8349 31.5252L70.8817 31.7498C71.0349 32.4851 71.5643 33.0852 72.2748 33.3288L72.4884 33.402C72.7519 33.4924 73.0285 33.5385 73.3071 33.5385H74.2045H74.546C75.2067 33.5385 75.7424 34.0741 75.7424 34.7349C75.7424 35.2738 76.1019 35.7507 76.6306 35.8551C77.7729 36.0807 79.205 36.2075 79.4773 35.6474C79.6166 35.3609 79.8755 35.2541 80.1693 35.2484C81.0599 35.2311 81.9242 35.6474 82.8151 35.6474H83.4925C83.7446 35.6474 83.996 35.6682 84.2466 35.6967C85.0032 35.783 86.2081 35.8501 86.947 35.6474C87.41 35.5204 88.4222 34.7743 89.469 33.9205C91.0386 32.6404 91.5473 30.4891 90.8535 28.5862L90.6818 28.1154L90.0838 26.2701C89.9523 25.8646 89.4456 25.7306 89.1309 26.0183C88.823 26.2998 88.3279 26.1785 88.185 25.7865L86.947 22.391L86.4052 21.3509C86.0395 20.6487 85.8485 19.8687 85.8485 19.0769C85.8485 18.2938 85.5999 17.5308 85.1384 16.8981L84.7588 16.3774C84.182 15.5864 83.8712 14.6328 83.8712 13.6538V12.2205C83.8712 11.6038 83.5877 11.0214 83.1023 10.641C82.6169 10.2607 82.3333 9.67823 82.3333 9.06155V8.83333V7.48737C82.3333 7.18352 82.4024 6.88365 82.5352 6.61038L82.7178 6.23482C83.009 5.63576 82.8594 4.91563 82.3536 4.48215C81.8292 4.03266 81.062 4.01058 80.5126 4.42916L79.4773 5.21795L78.3597 5.8748C78.1737 5.98408 77.9394 5.85 77.9394 5.63432C77.9394 5.43582 77.7379 5.30084 77.5543 5.37636L75.9867 6.02132C75.8252 6.08773 75.6775 6.18344 75.5509 6.30363L73.1514 8.58171C72.9812 8.74326 72.7555 8.83333 72.5209 8.83333C72.0924 8.83333 71.7297 9.13392 71.5889 9.53863C71.2102 10.6273 70.5353 11.4173 69.8106 8.83333C69.252 6.84149 68.7229 6.61097 68.3363 6.96535C67.8565 7.40522 67.3858 7.92949 66.7348 7.92949C65.8855 7.92949 65.197 7.24096 65.197 6.39161V6.07221C65.197 5.53 64.96 5.01487 64.5484 4.66202L64.2228 4.38302C63.7173 3.94971 63.0602 3.75416 62.4205 3.56949C61.9715 3.43988 61.559 3.20611 61.4621 2.80769C61.32 2.22281 59.9224 1.5985 58.8508 1.22178C58.4006 1.06353 57.9244 1 57.4472 1H57.2996C56.2902 1 55.3045 1.30549 54.472 1.87628L53.5737 2.49226C53.274 2.69773 52.9192 2.80769 52.5558 2.80769H52.4383C52.0273 2.80769 51.6338 2.97394 51.3473 3.2686C51.0712 3.55263 50.9167 3.93317 50.9167 4.32933V5.00038C50.9167 5.7104 50.599 6.38318 50.0507 6.83431C49.8963 6.96136 49.7586 7.10739 49.6408 7.26895L49.4118 7.58297C49.2456 7.81082 49.0285 7.99665 48.7777 8.12562L47.7011 8.67926C47.5286 8.76795 47.3173 8.71782 47.203 8.56113C47.0125 8.29986 46.6057 8.36701 46.5092 8.67564L46.1339 9.87663C46.1004 9.98379 46.0496 10.0847 45.9834 10.1755L45.787 10.4448C45.421 10.9467 44.8372 11.2436 44.2159 11.2436C43.5947 11.2436 43.0108 11.5404 42.6448 12.0424L42.5579 12.1616C42.279 12.544 42.1288 13.005 42.1288 13.4782V15.0182C42.1288 15.708 41.986 16.3904 41.7095 17.0223L40.8592 18.9657C40.8271 19.0392 40.7815 19.106 40.7247 19.1626C40.2261 19.6599 39.4068 19.106 39.6824 18.458L39.7968 18.1891C39.8819 17.9891 39.869 17.7613 39.7628 17.5717C39.1974 16.5613 38.2102 14.7403 37.7348 13.6538C37.6476 13.4545 37.5312 13.2909 37.3943 13.1576C36.2048 11.9994 33.9613 12.194 33.1675 10.7358C33.0374 10.4968 32.9419 10.2602 32.9015 10.0385C32.6191 8.48931 29.8116 9.03829 28.9323 7.73197L28.051 6.42271C27.9174 6.22424 27.8263 6.0003 27.7834 5.76495C27.5888 4.69723 26.4728 4.0682 25.4586 4.45455L23.9445 5.03131C23.6202 5.15485 23.3191 5.33227 23.0539 5.5561L21.1603 7.15408C20.7975 7.46026 20.3381 7.62821 19.8633 7.62821C19.2209 7.62821 18.617 7.9352 18.2385 8.45433L17.9621 8.83333C17.4099 9.59062 16.5291 10.0385 15.5918 10.0385H15.3258H14.6927C14.1064 10.0385 13.5371 10.235 13.0757 10.5965C12.5457 11.0119 12.1958 11.6153 12.0986 12.2816L12.0303 12.75L11.8606 14.6122C11.8279 14.9708 11.8938 15.3314 12.0512 15.6552L12.1021 15.7599C12.1994 15.9601 12.25 16.1798 12.25 16.4024V16.993C12.25 17.4783 11.8566 17.8718 11.3712 17.8718C11.0367 17.8718 10.277 17.2634 10.091 16.9853C9.78302 16.5252 9.25475 16.0641 8.51515 16.0641Z" stroke="#34AB81" stroke-width="2" shape-rendering="crispEdges"/>
</g>
<defs>
<filter id="filter0_d_603_9273" x="0" y="0" width="96.1566" height="56.0664" filterUnits="userSpaceOnUse" color-interpolation-filters="sRGB">
<feFlood flood-opacity="0" result="BackgroundImageFix"/>
<feColorMatrix in="SourceAlpha" type="matrix" values="0 0 0 0 0 0 0 0 0 0 0 0 0 0 0 0 0 0 127 0" result="hardAlpha"/>
<feOffset dy="4"/>
<feGaussianBlur stdDeviation="2"/>
<feComposite in2="hardAlpha" operator="out"/>
<feColorMatrix type="matrix" values="0 0 0 0 0 0 0 0 0 0 0 0 0 0 0 0 0 0 0.25 0"/>
<feBlend mode="normal" in2="BackgroundImageFix" result="effect1_dropShadow_603_9273"/>
<feBlend mode="normal" in="SourceGraphic" in2="effect1_dropShadow_603_9273" result="shape"/>
</filter>
</defs>
</svg>
