<svg width="97" height="56" viewBox="0 0 97 56" fill="none" xmlns="http://www.w3.org/2000/svg">
<g filter="url(#filter0_d_603_9174)">
<path d="M9.92806 32.3058C9.41445 32.3015 8.94172 32.4329 8.55829 32.6068C8.0876 32.8202 7.595 33.0216 7.07817 33.0216C6.77893 33.0216 6.4816 33.0791 6.21236 33.2097C5.72178 33.4477 5.12276 33.7879 5.01386 34.0345C4.83487 34.4397 6.44573 35.25 6.62471 35.4526L7.16253 36.0613C7.39919 36.3292 7.59314 36.6319 7.73757 36.9589L7.8297 37.1674C7.86155 37.2395 7.88616 37.3146 7.90316 37.3916C7.99764 37.8194 8.31953 38.1606 8.74105 38.2799L9.29768 38.4374C9.42425 38.4732 9.55517 38.4914 9.68672 38.4914C9.79286 38.4914 9.89844 38.503 10.0018 38.5271C10.3553 38.6094 10.9674 38.7579 11.4573 38.8966C11.9291 39.0301 11.3229 39.5802 11.2804 40.0687C11.279 40.0848 11.2783 40.0993 11.2783 40.1121C11.2783 40.2619 11.9922 40.885 12.43 41.245C12.4939 41.2976 12.5312 41.3757 12.5312 41.4585C12.5312 41.61 12.654 41.7328 12.8054 41.7328H14.5688C14.8769 41.7328 15.181 41.8026 15.4581 41.9371L15.4732 41.9444C15.9945 42.1973 16.5969 42.2246 17.1391 42.0201L17.4211 41.9137C17.7382 41.7941 18.0744 41.7328 18.4133 41.7328H19.3326H19.433C20.1527 41.7328 21.1224 42.026 21.1224 42.7457C21.1224 42.8896 21.5928 43.2571 21.907 43.4795C21.9785 43.5301 22.0642 43.556 22.1518 43.556C22.1814 43.556 22.2109 43.559 22.2399 43.565L22.4906 43.6166C23.5263 43.8297 24.6934 43.5224 25.149 42.5681C25.1875 42.4873 25.2184 42.4107 25.239 42.3405C25.3528 41.9542 25.6248 42.3097 25.8215 42.6754C25.9165 42.8518 25.955 43.0518 25.955 43.2522C25.955 43.4525 25.9968 43.6507 26.0778 43.834L26.2201 44.1562C26.3984 44.5597 26.6767 44.911 27.0289 45.1767C27.4979 45.4422 27.9728 45.7995 28.0936 46.3247C28.0995 46.3505 28.1028 46.3733 28.1028 46.3922V46.7315C28.1028 46.8798 28.223 47 28.3712 47C28.5195 47 28.6397 46.8799 28.6397 46.7316V45.5819C28.6397 45.3563 29.1599 45.1176 29.6573 44.9478C30.0464 44.8149 30.4709 44.8086 30.8593 44.6735C31.1112 44.5859 31.3245 44.4291 31.3245 44.1638C31.3245 43.556 32.2194 42.7457 32.3984 42.3405C32.5774 41.9353 32.3984 41.125 32.3984 40.9224C32.3984 40.7198 33.4723 40.1121 34.0092 39.7069C34.5389 39.3073 33.1613 39.1414 32.6053 38.7793C32.4237 38.661 32.2753 38.5546 32.2194 38.4914C32.0925 38.3477 32.2375 37.6627 32.3551 37.2268C32.3829 37.1242 32.4043 37.0201 32.4159 36.9145C32.5099 36.0632 33.1889 35.3937 34.042 35.3183C34.4781 35.2797 34.837 35.25 34.9042 35.25H37.0865C37.4205 35.25 37.7529 35.2102 38.0775 35.1315L39.2525 34.8465C39.7834 34.7177 40.2241 34.3492 40.4449 33.8495C40.6744 33.33 41.1411 32.9544 41.6962 32.8346C42.3586 32.6916 43.1183 32.5205 43.4954 32.4138C44.0681 32.2517 43.9727 31.806 43.8534 31.6034L43.1374 30.1853C42.8988 29.6451 42.4215 28.5241 42.4215 28.3621C42.4215 27.9357 43.0946 28.836 43.4871 28.6695L44.6411 28.1797C45.2678 27.9137 45.9801 27.9854 46.5709 28.3239C46.812 28.462 47.0127 28.5647 47.0751 28.5647C47.6558 28.5647 48.1464 28.0575 48.7051 28.2156L49.0612 28.3163C49.1685 28.3467 49.2794 28.3621 49.3909 28.3621H50.0607C50.2007 28.3621 50.3239 28.4543 50.3635 28.5885C50.4209 28.7835 50.6453 28.8736 50.8066 28.75C50.8838 28.6908 50.9579 28.6267 51.0127 28.5647C51.1074 28.4575 51.6249 28.2853 52.1198 28.1419C52.5123 28.0282 52.8899 28.2584 53.1605 28.5647C53.3721 28.8042 53.718 28.8746 53.9987 28.7218C54.4261 28.4891 54.9292 28.1834 55.1293 27.9569C55.35 27.7071 55.8682 27.7621 56.2582 27.8622C56.449 27.9112 56.5822 28.0758 56.6165 28.2698C56.6794 28.6261 57.0597 28.8292 57.3908 28.6834L59.2382 27.8703C59.7053 27.6647 60.0836 27.2991 60.3051 26.8394L60.6662 26.0902C60.9053 25.594 61.3076 25.1951 61.8058 24.9601L62.7202 24.5289C63.0031 24.3955 63.1836 24.1108 63.1836 23.798C63.1836 23.1965 63.8174 22.8059 64.3547 23.0762L64.7945 23.2974C65.1367 23.4265 65.5173 23.4065 65.8441 23.2421L66.3767 22.9741C66.7486 22.7871 67.1591 22.6897 67.5753 22.6897H69.3467C69.9325 22.6897 70.4434 22.2917 70.5868 21.7237C70.6605 21.4317 70.8349 21.175 71.0793 20.999L75.9098 17.5197C76.3552 17.1989 76.9128 17.0748 77.4522 17.1766C77.6044 17.2053 77.7595 17.2163 77.9142 17.2093L81.4837 17.0477C81.9298 17.0275 82.3712 16.9476 82.7961 16.8102L84.1714 16.3655C84.4974 16.26 84.8331 16.1883 85.1738 16.1521C86.5104 16.0098 88.5269 15.8017 88.7783 15.8017C88.9735 15.8017 89.2907 15.488 89.5484 15.1813C89.7528 14.938 89.8211 14.6128 89.7658 14.2999C89.7069 13.9664 89.7927 13.6237 90.0019 13.3574L91.1051 11.9526L91.359 11.6077C91.6614 11.197 91.443 10.611 90.9455 10.4984L90.5095 10.3996C90.3473 10.363 90.2499 10.197 90.2969 10.0375C90.3458 9.87122 90.2378 9.69966 90.0666 9.67199L89.1363 9.52155L88.9648 9.48274C88.5445 9.3876 88.1157 9.60333 87.9416 9.99749L87.7717 10.382C87.7308 10.4747 87.639 10.5345 87.5378 10.5345C87.4243 10.5345 87.3244 10.4598 87.2924 10.3509L87.2084 10.0659C87.1814 9.97424 87.1347 9.88961 87.0714 9.81799L86.9213 9.64814C86.7364 9.43883 86.4705 9.31896 86.1912 9.31896H85.7496C85.6323 9.31896 85.526 9.38821 85.4786 9.49555C85.4202 9.6276 85.2752 9.69839 85.1352 9.66318L84.2852 9.44936C83.9524 9.36566 83.6002 9.41325 83.3015 9.58226L82.1798 10.2171C81.8282 10.4161 81.5955 10.7738 81.556 11.1759C81.4911 11.8369 80.9173 12.3296 80.2541 12.2938L77.8993 12.1669C77.7631 12.1596 77.6392 12.0836 77.57 11.9662C77.3741 11.6336 76.8652 11.733 76.8169 12.1159C76.7981 12.2647 76.6986 12.3909 76.5583 12.4438L74.0599 13.3864C73.5027 13.5967 72.8843 13.2889 72.7161 12.7176C72.5836 12.2678 72.1624 11.9654 71.6938 11.9837L68.2413 12.1184C67.6289 12.1423 67.024 11.9765 66.5094 11.6437L66.2885 11.5008C65.3883 10.9186 64.2226 10.9506 63.3557 11.5814C62.6853 12.0692 62.2887 12.8482 62.2887 13.6773V14.0233C62.2887 14.5126 62.0905 14.9811 61.7392 15.3219C61.3004 15.7476 60.6762 15.9229 60.0799 15.7879L55.6663 14.7888L51.7796 14.3C51.1546 14.2214 50.5502 14.0254 49.998 13.7224L45.7416 11.3866C45.2039 11.0914 44.4 10.3038 43.8975 9.95197C42.3015 8.83424 40.15 9.08889 39.0472 7.48255C38.8336 7.17143 38.6402 6.83676 38.4838 6.48276C38.0508 5.50254 37.3341 5.06577 36.6901 4.90352C36.0307 4.73742 35.3196 4.59879 34.8083 4.15069L31.7273 1.45087C31.1846 0.975274 30.3469 1.45399 30.4811 2.16303C30.5535 2.54545 30.3249 2.92068 29.9519 3.03179L27.6916 3.70505C27.394 3.79369 27.0718 3.71053 26.8542 3.48893L26.7932 3.42676C26.2899 2.91399 25.418 3.2704 25.418 3.98895C25.418 4.27813 25.2624 4.54494 25.0108 4.68737L24.6423 4.89591C24.2286 5.13 23.7296 5.15837 23.2921 4.97267L23.2702 4.96336C22.8189 4.77179 22.3041 4.80106 21.8774 5.04255L18.0278 7.22116C17.2856 7.6412 16.8268 8.42807 16.8268 9.28088V9.99359C16.8268 10.3319 16.6592 10.6483 16.3793 10.8384C16.0994 11.0284 15.9319 11.3448 15.9319 11.6831V15.1824C15.9319 16.367 15.4551 17.4846 14.9014 18.5319C13.0614 22.012 14.3737 25.7714 15.5392 27.6337C15.6686 27.8405 15.8981 27.9569 16.1421 27.9569C16.5296 27.9569 16.8533 27.6568 16.8874 27.2708C16.9393 26.6831 17.612 26.3677 18.0907 26.7125L18.5303 27.0291C18.8093 27.2301 18.9746 27.5529 18.9746 27.8967V27.9537C18.9746 28.3369 18.7886 28.6962 18.4758 28.9175L18.0383 29.227C17.7275 29.4469 17.5427 29.8039 17.5427 30.1846C17.5427 30.6727 17.2405 31.1097 16.7838 31.282L16.574 31.3612C15.8926 31.6183 14.9606 31.3483 14.2608 31.5501C14.0227 31.6187 13.7679 31.7282 13.5116 31.8614C12.4541 32.4109 11.1198 32.3157 9.92806 32.3058Z" stroke="#34AB81" stroke-width="2" shape-rendering="crispEdges"/>
</g>
<defs>
<filter id="filter0_d_603_9174" x="-0.000244141" y="0.256348" width="96.4983" height="55.7437" filterUnits="userSpaceOnUse" color-interpolation-filters="sRGB">
<feFlood flood-opacity="0" result="BackgroundImageFix"/>
<feColorMatrix in="SourceAlpha" type="matrix" values="0 0 0 0 0 0 0 0 0 0 0 0 0 0 0 0 0 0 127 0" result="hardAlpha"/>
<feOffset dy="4"/>
<feGaussianBlur stdDeviation="2"/>
<feComposite in2="hardAlpha" operator="out"/>
<feColorMatrix type="matrix" values="0 0 0 0 0 0 0 0 0 0 0 0 0 0 0 0 0 0 0.25 0"/>
<feBlend mode="normal" in2="BackgroundImageFix" result="effect1_dropShadow_603_9174"/>
<feBlend mode="normal" in="SourceGraphic" in2="effect1_dropShadow_603_9174" result="shape"/>
</filter>
</defs>
</svg>
