<svg width="87" height="48" viewBox="0 0 87 48" fill="none" xmlns="http://www.w3.org/2000/svg">
<rect width="13.1697" height="8.68085" fill="#34AB81"/>
<rect y="19.6597" width="13.1697" height="8.68085" fill="#34AB81"/>
<rect y="39.3191" width="13.1697" height="8.68085" fill="#34AB81"/>
<rect x="73.8293" width="13.1697" height="8.68085" fill="#34AB81"/>
<rect x="73.8293" y="19.6597" width="13.1697" height="8.68085" fill="#34AB81"/>
<rect x="73.8293" y="39.3191" width="13.1697" height="8.68085" fill="#34AB81"/>
<rect x="14.7651" width="27.9358" height="8.68085" fill="#34AB81"/>
<rect x="14.7651" y="19.6597" width="27.9358" height="8.68085" fill="#34AB81"/>
<rect x="14.7651" y="39.3191" width="27.9358" height="8.68085" fill="#34AB81"/>
<rect y="9.70215" width="27.9358" height="8.68085" fill="#34AB81"/>
<rect y="29.3618" width="27.9358" height="8.68085" fill="#34AB81"/>
<rect x="29.532" y="9.70215" width="27.9358" height="8.68085" fill="#34AB81"/>
<rect x="29.532" y="29.3618" width="27.9358" height="8.68085" fill="#34AB81"/>
<rect x="59.064" y="9.70215" width="27.9358" height="8.68085" fill="#34AB81"/>
<rect x="59.064" y="29.3618" width="27.9358" height="8.68085" fill="#34AB81"/>
<rect x="44.2974" width="27.9358" height="8.68085" fill="#34AB81"/>
<rect x="44.2974" y="19.6597" width="27.9358" height="8.68085" fill="#34AB81"/>
<rect x="44.2974" y="39.3191" width="27.9358" height="8.68085" fill="#34AB81"/>
</svg>
