<svg width="76" height="75" viewBox="0 0 76 75" fill="none" xmlns="http://www.w3.org/2000/svg">
<path id="Polygon 2" d="M38 0L41.9721 0.205429L45.9006 0.819466L49.7426 1.83538L53.456 3.24205L57 5.02405L60.3358 7.16186L63.427 9.63207L66.2395 12.4076L68.7426 15.4581L70.909 18.75L72.7147 22.2474L74.1402 25.9119L75.1696 29.7033L75.7918 33.5802L76 37.5L75.7918 41.4198L75.1696 45.2967L74.1402 49.0881L72.7147 52.7526L70.909 56.25L68.7426 59.5419L66.2395 62.5924L63.427 65.3679L60.3358 67.8381L57 69.976L53.456 71.7579L49.7426 73.1646L45.9006 74.1805L41.9721 74.7946L38 75L34.0279 74.7946L30.0994 74.1805L26.2574 73.1646L22.544 71.7579L19 69.976L15.6642 67.8381L12.573 65.3679L9.7605 62.5924L7.25735 59.5419L5.09103 56.25L3.28527 52.7526L1.85985 49.0881L0.830391 45.2967L0.208168 41.4198L0 37.5L0.208168 33.5802L0.830391 29.7033L1.85985 25.9119L3.28527 22.2474L5.09103 18.75L7.25735 15.4581L9.7605 12.4076L12.573 9.63207L15.6642 7.16186L19 5.02405L22.544 3.24205L26.2574 1.83538L30.0994 0.819466L34.0279 0.205429L38 0Z" fill="url(#paint0_linear_853_135)"/>
<defs>
<linearGradient id="paint0_linear_853_135" x1="20.2667" y1="65" x2="53.0625" y2="10.1151" gradientUnits="userSpaceOnUse">
<stop stop-color="#34AB81"/>
<stop offset="1" stop-color="#1BBC65"/>
</linearGradient>
</defs>
</svg>
