<svg width="97" height="57" viewBox="0 0 97 57" fill="none" xmlns="http://www.w3.org/2000/svg">
<g filter="url(#filter0_d_603_9265)">
<path d="M79.1312 20.3058C79.2103 19.4916 79.238 18.697 78.9685 18.697C78.4798 18.697 77.6654 18.0937 77.1767 18.0937C76.688 18.0937 77.6654 16.4849 77.6654 15.6805C77.6654 14.8761 76.5251 15.0772 76.1993 14.2728C75.8736 13.4684 75.3849 14.2728 74.2446 14.2728C73.3324 14.2728 73.8645 13.6024 74.2446 13.2672C73.8102 13.6024 72.8112 14.2728 72.2899 14.2728C71.9601 14.2728 72.1346 13.8434 72.4172 13.3922C72.7324 12.8891 73.0414 12.3768 73.2195 11.8104C73.4571 11.0549 73.6852 10.2507 73.593 10.2507C73.5383 10.2507 73.309 10.1323 73.0212 9.97014C72.2131 9.51475 71.31 9.24517 70.3824 9.24517C70.0435 9.24517 69.6885 9.24517 69.3578 9.24517C68.8691 9.24517 68.5434 9.24517 68.2176 9.24517C67.8918 9.24517 66.9144 8.23969 66.1 8.23969V8.23969C65.4926 8.23969 65.0256 7.70946 65.0313 7.10214C65.0345 6.76559 65.0171 6.44122 64.9597 6.22866C64.8994 6.00516 64.7202 5.83053 64.5129 5.70078C64.0958 5.43968 63.5729 5.50035 63.1027 5.64548L62.4444 5.84864C61.7007 6.0782 61.0142 5.42425 60.2358 5.42425V5.42425C59.91 5.42425 59.2584 5.42425 58.6069 5.42425V5.42425C58.0917 5.42425 57.6031 5.65641 57.2398 6.02164C56.8724 6.39094 56.3466 6.88231 55.6748 7.43528C55.0232 8.03859 55.1861 6.83197 55.0232 6.22866C54.8929 5.74602 54.5345 5.49129 54.3716 5.42425C53.8287 5.22315 52.5798 4.82095 51.9282 4.82095C51.1138 4.82095 50.1364 4.21764 49.4848 3.41323C49.1958 3.05645 48.7934 3.17769 48.4273 3.44796C48.1607 3.6448 47.693 3.48133 47.693 3.14993V3.14993C47.693 2.96215 47.5323 2.80563 47.3744 2.70401C47.1731 2.57445 46.96 2.30735 46.8785 1.80441C46.8498 1.62682 46.7887 1.51131 46.7069 1.44273C46.1575 0.981935 45.3151 1 44.598 1V1C44.5154 1 44.2973 1.4853 44.0935 1.99424C43.8788 2.53021 43.7836 3.10515 43.7836 3.68251V5.13871C43.7836 5.32774 43.7519 5.51543 43.6899 5.69401L43.5457 6.10947C43.3956 6.542 42.9879 6.83197 42.5301 6.83197V6.83197C42.3897 6.83197 42.2504 6.80578 42.1234 6.74604C41.5935 6.49674 40.7556 5.99178 40.5257 5.42425C40.3393 4.96398 39.864 4.8192 39.4694 4.79858C39.2072 4.78489 38.9402 4.73245 38.7292 4.5762V4.5762C38.4334 4.35708 38.0412 4.34375 37.6841 4.43301C37.3263 4.52244 36.9422 4.51959 36.7792 4.21764C36.4534 3.61433 36.1276 3.41323 35.3131 1.80441C34.4986 0.19559 34.4986 2.80992 33.8471 2.80992C33.444 2.80992 33.5344 2.08858 33.6965 1.48249C33.7601 1.24471 33.5876 1 33.3414 1V1C33.2479 1 33.1582 1.03684 33.0917 1.10253L32.8953 1.29648C32.6198 1.56855 32.1698 1.54359 31.9261 1.24273V1.24273C31.8017 1.08919 31.6147 1 31.4171 1H31.2918C31.0504 1 30.8187 1.09513 30.6469 1.26478L30.2967 1.61069C30.171 1.73481 30.0015 1.80441 29.8249 1.80441V1.80441C29.6863 1.80441 29.5517 1.76087 29.4355 1.68532C29.0018 1.40333 28.2721 1 27.82 1C27.688 1 27.5531 1 27.4218 1C26.922 1 26.5169 1.40517 26.5169 1.90496V1.90496C26.5169 2.40476 26.1117 2.80992 25.6119 2.80992H25.2894C24.9312 2.80992 24.5908 2.96639 24.3577 3.2383L22.4053 5.51468C22.0348 5.94673 21.4402 6.11252 20.8995 5.93453V5.93453C20.0835 5.66589 19.2197 6.18599 19.0753 7.03284L19.0004 7.47206C18.8336 8.44969 17.8946 9.06793 16.9062 9.14843C16.0414 9.21886 15.2772 9.50567 15.2772 10.2507C15.2772 11.1483 14.3264 12.033 13.4194 12.6453C12.79 13.0702 12.3452 13.7503 12.3452 14.5098V15.0188C12.3452 15.8285 11.6888 16.4849 10.8791 16.4849H10.2175C9.77322 16.4849 9.41307 16.845 9.41307 17.2893V17.5597C9.41307 17.8546 9.17401 18.0937 8.87911 18.0937V18.0937C8.80163 18.0937 8.72508 18.1105 8.65478 18.1431L7.8718 18.5056C7.59689 18.6329 7.33777 18.7923 7.07227 18.9382C6.69502 19.1455 6.13294 19.3904 5.50367 19.5014C4.59147 19.6623 5.12359 21.1773 5.50367 21.9146L5.86717 22.5878C6.18784 23.1817 6.96617 23.3434 7.49689 22.9265V22.9265C7.93714 22.5806 8.56801 22.6252 8.95517 23.0297L9.8722 23.9876C10.2105 24.3411 10.4299 24.7894 10.5589 25.2614C11.0594 27.0931 11.7611 26.9836 12.3683 26.2643C13.0796 25.4216 14.1521 24.8362 15.1862 25.2192V25.2192C16.0154 25.5264 16.5475 26.3359 16.5079 27.2193C16.3224 31.3577 16.2121 36.8954 16.9062 34.1819C17.6373 31.3234 18.7104 32.2284 19.2461 33.1801C19.3186 33.3088 19.4012 33.4321 19.5027 33.5395L19.8728 33.9312C20.2146 34.2929 20.7839 34.3119 21.149 33.9738V33.9738C21.5081 33.6413 22.0661 33.6534 22.4104 34.0012L22.6098 34.2026C23.1242 34.7221 23.9416 34.5944 24.5713 34.2229C26.0598 33.3448 26.5169 36.0296 26.5169 35.1874V35.1874C26.5169 34.4414 27.0747 35.9362 27.7159 35.5549C28.0474 35.3578 28.4042 35.0357 28.7451 34.5302C28.897 34.305 29.0032 34.0516 29.0733 33.7891C29.3615 32.71 28.9603 33.3019 28.9603 32.5731C28.9603 31.7687 28.9603 31.7687 28.9603 29.9588C28.9603 28.1488 30.1005 31.7687 31.7295 29.9588C32.1204 29.4761 32.8697 28.8192 33.1955 28.551V28.551C33.8547 28.086 34.0843 27.2144 33.7396 26.4849L33.669 26.3355C33.3773 25.7182 33.4486 24.9912 33.8479 24.4375C34.4004 23.6713 35.0442 22.7594 35.3131 22.3169C35.555 21.9186 35.3104 22.6807 34.9729 23.6214C34.5746 24.7317 34.5326 25.9513 34.9933 27.0372C35.0984 27.285 35.2069 27.5282 35.3131 27.7466C35.8018 28.7521 36.2905 27.7466 36.7792 27.7466C37.2678 27.7466 37.2678 28.551 37.9194 28.551C38.3125 28.551 38.6686 29.0848 38.8898 29.5485C39.0164 29.814 39.0597 30.1089 39.0597 30.403V30.6657C39.0597 31.3573 38.7235 32.0058 38.1584 32.4045V32.4045C37.3506 32.9744 37.0417 34.0256 37.4128 34.942L37.8261 35.9625C37.8867 36.1122 37.9935 36.2387 38.1309 36.3235V36.3235C38.2065 36.3702 38.2897 36.4032 38.3767 36.4211L39.9527 36.7454C40.1126 36.7783 40.256 36.8655 40.3588 36.9923L40.6169 37.3111C40.8582 37.6089 41.3335 37.5205 41.4517 37.1559V37.1559C41.485 37.0532 41.5518 36.9645 41.6414 36.9042L42.8305 36.1034C43.0934 35.9264 43.4478 35.9795 43.6472 36.2257V36.2257C43.7354 36.3346 43.7836 36.4705 43.7836 36.6106V37.6202C43.7836 38.0066 43.7189 38.3904 43.5921 38.7554L43.3358 39.4939C43.3087 39.5719 43.2949 39.6538 43.2949 39.7363V39.9848C43.2949 40.5685 44.011 40.8491 44.4075 40.4208V40.4208C44.529 40.2896 44.6993 40.215 44.8781 40.215C45.5321 40.215 46.5411 40.215 46.8785 40.215C47.1474 40.215 47.367 40.215 47.7 40.3155C48.4804 40.5509 49.2301 41.0187 49.6205 41.7342C49.6945 41.8697 49.7662 42.0104 49.8331 42.1485C50.0485 42.5933 50.2945 43.0245 50.6056 43.4086L51.4396 44.4381C51.6024 44.7063 52.1237 45.3632 52.9056 45.8458C53.2613 46.0654 53.5631 46.2656 53.8018 46.4312C54.1399 46.6658 54.6009 46.6627 54.9186 46.4012V46.4012C55.4802 45.939 56.3264 46.3383 56.3264 47.0656C56.3264 47.1906 56.3264 47.3205 56.3264 47.4547C56.3264 48.8624 57.7924 47.0525 58.6069 47.4547C58.7728 47.5366 58.8718 47.5246 58.9228 47.4513C59.1971 47.0566 59.7847 46.511 59.91 46.0469V46.0469V46.0469C60.0068 45.6883 60.459 45.8886 60.8297 45.9137C61.659 45.97 62.6792 45.8791 62.6792 45.2425C62.6792 44.237 63.1679 44.6392 63.8194 44.4381V44.4381C64.5724 44.2057 63.8194 43.0027 63.8194 42.2147C63.8194 41.6932 63.8194 41.156 63.8194 40.8183C63.8194 40.4173 64.1146 40.0996 64.4291 39.8846C64.6702 39.7198 64.9597 39.9179 64.9597 40.21V40.21C64.9597 40.5049 65.2536 40.7094 65.5301 40.607L66.2501 40.3404C66.4683 40.2595 66.6496 40.1021 66.7602 39.8973L67.1611 39.1548C67.2133 39.0581 67.2839 38.9724 67.3687 38.9026V38.9026C67.7982 38.5491 68.4384 38.7063 68.7719 39.1514C68.9674 39.4123 69.1776 39.6117 69.3578 39.6117C69.8465 39.6117 70.4981 39.6117 70.0094 38.204C69.5207 36.7962 71.1496 37.6006 71.8012 37.6006C72.3225 37.6006 71.584 38.9413 71.1496 39.6117L70.4294 40.8819C70.1876 41.3084 70.2924 41.8473 70.6764 42.1521V42.1521C71.3285 42.6696 72.2899 42.2052 72.2899 41.3727V41.2739C72.2899 40.9834 72.4111 40.7061 72.6242 40.5088L73.4333 39.7596C73.538 39.6626 73.6162 39.5403 73.6602 39.4045V39.4045C73.8839 38.7139 74.8218 38.6186 75.1799 39.2501L75.3849 39.6117L75.8908 40.3924C76.3879 41.1596 77.2399 41.6227 78.1541 41.6227V41.6227V41.6227C78.0203 41.6227 77.9729 41.4455 78.0888 41.3787L79.7816 40.4034C79.9841 40.2868 80.1088 40.071 80.1088 39.8374V39.7835C80.1088 39.6704 80.0831 39.5588 80.0337 39.4571L79.1873 37.716C79.153 37.6455 79.0814 37.6006 79.0029 37.6006V37.6006C78.8165 37.6006 78.7268 37.3719 78.8636 37.2452L79.1312 36.9973L79.8671 36.3917C80.3393 36.0032 80.9318 35.7907 81.5433 35.7907H82.0619C83.2323 35.7907 84.1811 34.8419 84.1811 33.6715V33.6715C84.1811 32.9827 84.5159 32.3369 85.0787 31.9399L85.3214 31.7687C85.7015 31.5005 86.5594 30.924 86.9503 30.7632C87.439 30.5621 88.5792 29.9588 89.3937 29.3554C89.5492 29.2403 89.6706 29.1076 89.7647 28.9677C90.2334 28.2709 90.1923 27.3318 90.4728 26.5403L91.1855 24.529L91.8754 21.4629C91.9393 21.179 91.7234 20.9091 91.4324 20.9091V20.9091C91.2784 20.9091 91.139 20.9912 91.0329 21.1027C90.7735 21.3756 90.3628 21.5625 90.0453 20.9091C89.839 20.4847 89.6841 20.6015 89.5759 20.9049C89.355 21.5239 89.1072 22.1504 88.5998 22.5681V22.5681C88.1653 22.9257 87.6199 23.1213 87.0571 23.1213H86.9503C86.5702 23.1213 85.7123 23.2822 85.3214 23.9257V23.9257C84.8627 24.6807 83.5685 24.1046 82.8392 23.606C82.6664 23.4878 82.5522 23.3299 82.5522 23.1213C82.5522 23.0876 82.5486 23.0582 82.5418 23.0328C82.1901 21.7271 79.8371 23.348 78.7603 22.5299V22.5299C78.574 22.3884 78.4054 22.225 78.2582 22.0432L78.1541 21.9146L77.3184 21.0549C77.2251 20.9589 77.1539 20.8436 77.11 20.7171L77.0085 20.4247C76.8517 19.9729 77.1872 19.5014 77.6654 19.5014V19.5014M79.1312 20.3058C79.0669 20.9684 78.9685 21.6439 78.9685 21.9146C78.9685 22.3973 79.077 21.0432 79.1312 20.3058Z" stroke="#34AB81" stroke-width="2" shape-rendering="crispEdges"/>
</g>
<defs>
<filter id="filter0_d_603_9265" x="-3.05176e-05" y="-0.000244141" width="96.8871" height="57.0002" filterUnits="userSpaceOnUse" color-interpolation-filters="sRGB">
<feFlood flood-opacity="0" result="BackgroundImageFix"/>
<feColorMatrix in="SourceAlpha" type="matrix" values="0 0 0 0 0 0 0 0 0 0 0 0 0 0 0 0 0 0 127 0" result="hardAlpha"/>
<feOffset dy="4"/>
<feGaussianBlur stdDeviation="2"/>
<feComposite in2="hardAlpha" operator="out"/>
<feColorMatrix type="matrix" values="0 0 0 0 0 0 0 0 0 0 0 0 0 0 0 0 0 0 0.25 0"/>
<feBlend mode="normal" in2="BackgroundImageFix" result="effect1_dropShadow_603_9265"/>
<feBlend mode="normal" in="SourceGraphic" in2="effect1_dropShadow_603_9265" result="shape"/>
</filter>
</defs>
</svg>
