<svg width="97" height="56" viewBox="0 0 97 56" fill="none" xmlns="http://www.w3.org/2000/svg">
<g filter="url(#filter0_d_603_9169)">
<path d="M7.41126 12.1402C6.95336 12.2822 6.51367 12.6335 6.12989 13.0518C5.40607 13.8408 5.89986 15.0315 6.90754 15.3933C7.14591 15.4789 7.36505 15.6175 7.54365 15.797L8.11439 16.3709C8.53034 16.7891 9.21795 16.751 9.5852 16.2895C9.92228 15.8658 10.5378 15.7932 10.9643 16.1267L11.0923 16.2267C11.4368 16.4962 11.598 16.9374 11.5141 17.3667C11.2516 18.7104 10.9495 20.4766 11.1679 20.2569C11.3686 20.0551 12.5519 21.4002 13.5037 22.574C13.9432 23.1161 13.9075 23.8959 13.4356 24.41C12.8405 25.0581 13.3066 26.052 13.7099 25.27C13.7289 25.2332 13.7473 25.1941 13.7649 25.1528C14.0144 24.5675 14.9428 24.888 15.8341 25.3942C16.7473 25.9129 17.739 26.3081 18.786 26.3908C20.1145 26.4956 21.5392 26.6778 21.7183 26.9479C22.0429 27.4375 23.9907 25.9688 23.5037 28.2535C23.4503 28.5043 23.3718 28.719 23.274 28.9022C22.7673 29.8513 21.2968 31.5881 21.3937 32.6597C21.4829 33.6463 22.1389 33.149 22.7514 32.4059C23.2068 31.8534 23.9952 31.6582 24.6041 32.035L24.9198 32.2303C25.3131 32.4736 25.4563 32.9764 25.2504 33.3904L25.2248 33.442C25.0692 33.7548 25.1303 34.1319 25.3767 34.3796C25.5285 34.5323 25.6138 34.739 25.6138 34.9543V35.026C25.6138 35.2873 25.5104 35.538 25.3261 35.7233L24.9239 36.1277C24.7497 36.3028 24.6889 36.561 24.7667 36.7955C24.8772 37.1289 25.2307 37.3061 25.5795 37.2634C25.8585 37.2293 26.1007 37.2447 26.1007 37.3924C26.1007 37.5676 26.6368 37.7526 27.1693 37.8883C27.6294 38.0055 28.1135 37.9205 28.5298 37.6922C29.22 37.3137 30.0689 37.4231 30.8512 37.5238L30.8769 37.5272C31.2166 37.5709 31.5862 37.5466 31.944 37.3924C32.4744 37.1638 33.6937 36.9242 34.8861 36.7318C35.8267 36.58 36.4348 35.444 37.1381 36.0868C37.6913 36.5925 37.8078 37.0981 37.6896 37.5564C37.373 38.7829 36.6412 40.0935 37.2314 41.2143L37.391 41.5173C37.5421 41.8043 37.7902 42.0282 38.091 42.1492C38.7467 42.4129 39.0936 43.1325 38.8915 43.8097L38.7885 44.1552C38.7704 44.2157 38.7428 44.2729 38.7067 44.3248C38.3744 44.8021 38.4515 44.9323 39.0095 44.7683C40.9722 44.1915 44.2286 44.341 43.306 44.5729C41.6842 44.9806 44.6823 46.4614 46.3541 46.4991C46.9973 46.5136 47.6403 46.6131 48.1754 46.8576C49.9608 47.6736 53.3694 43.7569 53.0448 45.5521C53.0345 45.6089 53.0266 45.6648 53.0208 45.7196C52.8699 47.1645 54.7216 46.2039 55.9279 45.3944C55.9708 45.3656 56.014 45.3381 56.0572 45.3119C56.6481 44.9537 57.2175 44.4758 57.3984 43.8089C57.521 43.3569 57.4629 42.8749 57.2364 42.465L56.8872 41.833C56.8156 41.7034 56.778 41.5577 56.778 41.4096C56.778 40.9765 57.0947 40.6085 57.5229 40.5439L59.5764 40.2342C59.8339 40.1954 60.0243 39.9741 60.0243 39.7138C60.0243 39.4231 60.2599 39.1875 60.5505 39.1875H61.1898C61.663 39.1875 62.0891 38.9015 62.2685 38.4637L62.6093 37.6314C62.9111 36.8945 63.6283 36.4132 64.4246 36.4132C64.8351 36.4132 65.2353 36.2844 65.5688 36.0449L67.9882 34.3074C68.3045 34.0802 68.5914 33.8146 68.8422 33.5166L69.5563 32.6681C69.9961 32.1454 70.6443 31.8438 71.3274 31.8438H71.586C72.1734 31.8438 72.7245 31.5593 73.0647 31.0804L73.8906 29.9178C74.0302 29.7213 74.3045 29.6789 74.4969 29.824C74.6676 29.9527 74.9071 29.9357 75.0578 29.7841L75.8032 29.0347C76.1954 28.6404 76.8694 28.8557 76.9604 29.4044C77.0201 29.7647 77.3529 30.0141 77.7154 29.9704L79.5939 29.7438C80.5408 29.6295 81.3541 29.017 81.7255 28.1385L82.8495 25.4793C83.4965 23.9487 84.8617 22.8395 86.4924 22.5196L90.475 21.7383C90.5177 21.7299 90.5611 21.7257 90.6046 21.7257H91.1076C91.4679 21.7257 91.6687 21.3093 91.4443 21.0274C91.3837 20.9512 91.3507 20.8567 91.3507 20.7594V18.648C91.3507 18.0381 90.8029 17.5744 90.2014 17.6752C89.7373 17.753 89.2829 17.492 89.1161 17.052L88.6587 15.8448C88.3185 14.9468 87.4664 14.3866 86.6058 13.9608C86.5908 13.9534 86.5759 13.9459 86.5612 13.9383C85.1902 13.2372 83.5327 12.3301 82.0267 12.0092C81.8199 11.9652 81.6708 11.8893 81.6119 11.7708C81.4227 11.3903 80.7049 11.4488 80.099 11.5928C79.6977 11.6881 79.2908 11.7708 78.8783 11.7708C77.6523 11.7708 76.1104 13.1297 75.3399 12.1762C75.1446 11.9345 74.9578 11.5448 74.7948 10.9549C73.9832 8.01736 73.9832 9.15972 72.0354 8.01736C70.4165 7.06782 67.3545 4.08553 65.5146 3.71428C65.4176 3.69471 65.3253 3.67479 65.2384 3.65487C65.116 3.62683 64.993 3.60642 64.8679 3.5971L61.9897 3.38275C61.127 3.3185 60.2958 3.03152 59.5772 2.54986L58.3793 1.74695C57.6859 1.28218 56.8022 1.20677 56.0401 1.54733C55.039 1.99467 53.7529 1.5845 52.6667 1.73448C52.0954 1.81336 51.4912 2.06638 50.946 2.37316C50.1603 2.81525 48.872 2.53366 47.9742 2.61636C47.4156 2.66782 47.0617 2.64862 46.5431 2.43483C43.2903 1.09391 40.5727 1.01192 38.7347 1.31907C37.3623 1.54841 35.4045 1.40326 34.1229 1.94523C32.0879 2.80588 30.3131 4.2175 28.2117 4.90015C28.0433 4.95484 27.8819 5.01129 27.7288 5.06816C26.9607 5.35346 26.1592 5.5695 25.3399 5.5695H21.1868C20.6784 5.5695 20.167 5.63411 19.7104 5.85754C18.6861 6.35871 17.6012 7.22568 16.6729 8.09453C15.4209 9.26647 13.6123 9.79219 11.9553 10.2341C11.1539 10.4479 10.4317 10.7725 9.91969 11.0569C9.68439 11.1877 9.39765 11.1991 9.16265 11.0679L8.91394 10.9289C8.54205 10.7212 8.08396 10.9901 8.08396 11.416C8.08396 11.7683 7.74777 12.0359 7.41126 12.1402Z" stroke="#34AB81" stroke-width="2" shape-rendering="crispEdges"/>
</g>
<defs>
<filter id="filter0_d_603_9169" x="0.786255" y="0.171143" width="95.7544" height="55.8" filterUnits="userSpaceOnUse" color-interpolation-filters="sRGB">
<feFlood flood-opacity="0" result="BackgroundImageFix"/>
<feColorMatrix in="SourceAlpha" type="matrix" values="0 0 0 0 0 0 0 0 0 0 0 0 0 0 0 0 0 0 127 0" result="hardAlpha"/>
<feOffset dy="4"/>
<feGaussianBlur stdDeviation="2"/>
<feComposite in2="hardAlpha" operator="out"/>
<feColorMatrix type="matrix" values="0 0 0 0 0 0 0 0 0 0 0 0 0 0 0 0 0 0 0.25 0"/>
<feBlend mode="normal" in2="BackgroundImageFix" result="effect1_dropShadow_603_9169"/>
<feBlend mode="normal" in="SourceGraphic" in2="effect1_dropShadow_603_9169" result="shape"/>
</filter>
</defs>
</svg>
