<svg width="51" height="50" viewBox="0 0 51 50" fill="none" xmlns="http://www.w3.org/2000/svg">
<path d="M13.8036 1H1V8.74197H13.8036V1Z" stroke="#34AB81" stroke-width="2"/>
<path d="M27.6891 1H13.9839V8.74197H27.6891V1Z" stroke="#34AB81" stroke-width="2"/>
<path d="M23.0005 8.74194H10.0166V17H23.0005V8.74194Z" stroke="#34AB81" stroke-width="2"/>
<path d="M23.0005 24.7422H10.0166V33.0003H23.0005V24.7422Z" stroke="#34AB81" stroke-width="2"/>
<path d="M13.9839 33.0002H1V40.7422H13.9839V33.0002Z" stroke="#34AB81" stroke-width="2"/>
<path d="M23.0005 40.7419H10.0166V49H23.0005V40.7419Z" stroke="#34AB81" stroke-width="2"/>
<path d="M28.0498 33.0002H13.9839V40.7422H28.0498V33.0002Z" stroke="#34AB81" stroke-width="2"/>
<path d="M37.0664 24.7422H23.0005V33.0003H37.0664V24.7422Z" stroke="#34AB81" stroke-width="2"/>
<path d="M49.6897 24.7422H37.0664V33.0003H49.6897V24.7422Z" stroke="#34AB81" stroke-width="2"/>
<path d="M40.6731 33.0002H28.0498V40.7422H40.6731V33.0002Z" stroke="#34AB81" stroke-width="2"/>
<path d="M37.0664 40.7419H23.0005V49H37.0664V40.7419Z" stroke="#34AB81" stroke-width="2"/>
<path d="M49.6897 40.7419H37.0664V49H49.6897V40.7419Z" stroke="#34AB81" stroke-width="2"/>
<path d="M13.9839 17.0002H1V24.7422H13.9839V17.0002Z" stroke="#34AB81" stroke-width="2"/>
<path d="M28.0498 17.0002H13.9839V24.7422H28.0498V17.0002Z" stroke="#34AB81" stroke-width="2"/>
<path d="M37.0664 8.74194H23.0005V17H37.0664V8.74194Z" stroke="#34AB81" stroke-width="2"/>
<path d="M49.6897 8.74194H37.0664V17H49.6897V8.74194Z" stroke="#34AB81" stroke-width="2"/>
<path d="M40.6731 17.0002H28.0498V24.7422H40.6731V17.0002Z" stroke="#34AB81" stroke-width="2"/>
<path d="M40.6734 1H27.6895V8.74197H40.6734V1Z" stroke="#34AB81" stroke-width="2"/>
<path d="M10.0166 17V8.74194H1V17H10.0166Z" stroke="#34AB81" stroke-width="2"/>
<path d="M10.0166 33.0003V24.7422H1V33.0003H10.0166Z" stroke="#34AB81" stroke-width="2"/>
<path d="M49.69 8.74197V1H40.6733V8.74197H49.69Z" stroke="#34AB81" stroke-width="2"/>
<path d="M49.69 24.7422V17.0002H40.6733V24.7422H49.69Z" stroke="#34AB81" stroke-width="2"/>
<path d="M49.69 40.7422V33.0002H40.6733V40.7422H49.69Z" stroke="#34AB81" stroke-width="2"/>
<path d="M10.0166 49V40.7419H1V49H10.0166Z" stroke="#34AB81" stroke-width="2"/>
</svg>
