<svg width="97" height="57" viewBox="0 0 97 57" fill="none" xmlns="http://www.w3.org/2000/svg">
<g filter="url(#filter0_d_603_9178)">
<path d="M55.5586 46.2837L55.6316 46.0197M55.6316 46.0197L55.6904 45.8067C55.8157 45.3534 55.7387 44.8699 55.5586 44.4354V44.4354C55.3945 44.0393 53.9171 44.4354 53.4246 44.4354C53.2363 44.4354 53.0154 44.6165 52.8122 44.8488C52.4877 45.2198 51.9294 45.3021 51.7831 44.8315V44.8315C51.619 44.3034 50.6341 45.6236 50.6341 45.3595V45.3595C50.6341 44.6636 48.1021 46.1685 47.4998 46.517C47.486 46.5251 47.4726 46.5319 47.4597 46.5374C47.3915 46.5666 47.3159 46.5213 47.2433 46.5365C47.2149 46.5425 47.1829 46.5529 47.1483 46.5669C46.7148 46.7424 46.1721 46.6437 45.8737 46.2837V46.2837C45.5454 45.8876 45.7095 46.6798 45.3812 46.6798C45.308 46.6798 45.182 46.7482 45.0289 46.8564C44.4362 47.2754 43.5924 46.9944 43.7397 46.2837V46.2837C43.9039 45.4916 43.5756 46.0197 42.919 45.3595C42.2624 44.6994 42.919 44.8315 42.919 44.4354C42.919 44.0393 43.4114 44.0393 43.5756 44.0393V44.0393C43.8969 44.0393 43.7967 43.5198 43.4966 43.4049C43.262 43.3151 43.0409 43.2133 42.919 43.1152V43.1152C42.4943 42.7736 41.8478 42.5877 41.7491 42.0517C41.7297 41.9465 41.7322 41.8555 41.7699 41.7949C41.853 41.6613 41.7653 41.063 41.6481 40.4742C41.5304 39.8831 41.0157 39.4472 40.785 38.8904V38.8904C40.6208 38.4944 39.3076 40.2107 38.9793 40.4747C38.8951 40.5425 38.7861 40.6301 38.6697 40.7237C38.2418 41.0679 37.6015 41.3469 37.1737 41.0028V41.0028C37.0095 40.8708 36.6812 42.5871 36.6812 42.191C36.6812 41.7949 35.6963 42.191 34.5472 43.3792C33.3982 44.5674 33.234 43.6433 33.0699 43.3792V43.3792C32.63 42.6717 31.4743 43.7979 30.6436 43.7349C30.3763 43.7146 30.1673 43.6852 30.1152 43.6433C29.9594 43.518 29.8037 43.5116 28.9473 42.9477C28.8533 42.8858 28.7307 42.6249 28.6897 42.5202V42.5202C28.5553 42.1766 28.2203 42.7122 27.8686 42.6011C27.2298 42.3994 26.5204 42.191 26.3397 42.191C26.2104 42.191 25.9166 42.255 25.5993 42.3358C25.0499 42.4756 24.4228 42.3187 24.2057 41.7949V41.7949C24.0416 41.3989 22.8925 42.059 22.7283 42.191C22.5642 42.323 21.7434 42.191 21.0868 41.7949C20.4302 41.3989 21.4151 41.3989 21.7434 40.4747C21.7967 40.3247 21.8239 40.2156 21.8315 40.1389C21.8719 39.7316 21.2468 40.3481 20.8526 40.4586C20.6952 40.5027 20.5412 40.5194 20.4302 40.4747C20.1019 40.3427 20.1019 39.5506 19.9378 39.2865V39.2865C19.6897 38.8874 18.9918 39.4044 18.5809 39.1764C17.9905 38.8487 17.3286 38.4492 17.1472 38.2303C16.8189 37.8343 16.4906 37.9663 16.4906 37.4382V37.4382C16.4906 36.8967 15.5674 36.9851 15.1169 36.6847C14.6036 36.3425 13.9507 35.9225 13.3717 35.5899C12.2227 34.9298 12.7151 34.1376 12.7151 33.7416C12.7151 33.3455 12.0585 33.4775 11.5661 33.3455C11.0736 33.2135 12.0585 32.8174 12.0585 32.4213C12.0585 32.0253 12.0585 32.0253 12.3868 31.3652C12.7151 30.7051 12.7151 30.8371 12.7151 30.573C12.7151 30.309 12.0585 29.7809 11.5661 29.6489V29.6489C11.1697 29.5426 11.1994 29.0289 11.5535 28.8215C11.9854 28.5685 12.5861 28.1951 13.3717 27.6685C15.3415 26.3483 14.1925 27.8006 14.5208 27.6685V27.6685C15.2448 27.3774 16.059 27.4682 16.7756 27.7772C16.903 27.8321 17.029 27.885 17.1472 27.9326C17.8038 28.1966 17.1472 27.5365 17.1472 27.4045C17.1472 27.2725 16.8189 26.6124 16.8189 26.4803V26.4803C16.8189 26.1355 16.6833 25.7633 17.0274 25.7402L17.6835 25.6963C17.7627 25.691 17.8397 25.6682 17.9085 25.6286C18.483 25.2979 19.486 24.6658 19.6095 24.368V24.368C19.8662 23.7484 20.9567 24.0539 21.6065 23.8878C21.9697 23.795 22.4451 23.6894 23.0566 23.5758V23.5758C24.3846 23.3294 23.9871 21.5762 24.1202 20.2321C24.1425 20.007 24.1706 19.832 24.2057 19.7472C24.3699 19.3511 25.1906 19.3511 25.0265 19.0871C24.8623 18.823 24.3699 18.559 24.0416 18.559V18.559C23.5771 18.559 23.2485 19.1264 22.7841 19.1199C22.4175 19.1147 22.0553 19.0738 21.9076 18.9551C21.5793 18.691 21.251 19.2191 20.2661 19.4831V19.4831C19.974 19.5614 18.7865 19.8461 18.4844 19.8309L17.3075 19.7718C17.0145 19.757 16.7451 19.9288 16.6573 20.2087C16.6049 20.3759 16.5467 20.5776 16.4906 20.8034C16.3993 21.1708 15.6139 21.4743 14.8865 21.6694C14.3674 21.8087 13.8659 21.5773 13.4423 21.2465V21.2465C13.0618 20.9494 12.4945 21.1962 12.0127 21.1662C11.5234 21.1358 10.9475 20.9354 10.7453 20.9354C10.417 20.9354 9.59624 20.1433 9.10378 19.8792C8.61133 19.6152 8.77548 19.4831 8.44718 19.2191C8.11888 18.9551 8.44718 18.427 8.44718 18.0309C8.44718 17.6348 8.77548 17.2388 9.10378 16.8427C9.27507 16.6361 9.59531 16.83 9.87326 17.0875C10.1478 17.3419 10.3323 17.6741 10.4923 18.0125C10.6751 18.3992 10.9023 18.8747 11.0736 19.2191C11.4019 19.8792 12.0585 19.6152 12.0585 19.2191C12.0585 18.823 12.0585 18.2949 12.3868 18.1629C12.7151 18.0309 12.0585 16.8427 11.8944 16.4466C11.7302 16.0506 11.4019 16.4466 11.0736 16.5787C10.8773 16.6576 10.6076 16.3481 10.4154 16.0581C10.3005 15.8848 10.2528 15.6778 10.2528 15.4699V14.9213C10.2528 14.5242 9.90569 14.2174 9.59624 14.4663V14.4663C9.26793 14.7303 9.10378 14.2022 8.77548 13.8062C8.44718 13.4101 8.28303 13.8062 7.95472 13.4101C7.62642 13.014 7.13397 13.6742 6.64151 13.8062C6.14906 13.9382 5.49245 13.4101 5.3283 13.4101C5.2465 13.4101 5.16046 13.1711 5.09397 12.9163C5.01993 12.6327 5 12.3385 5 12.0453C5 11.9678 5 11.8917 5 11.8258C5 11.6146 6.96982 11.5618 7.95472 11.5618C8.39246 11.6058 9.3336 11.6146 9.59624 11.2978V11.2978C9.78318 11.0722 10.0754 11.2601 10.3237 11.4154L11.0362 11.8611C11.278 12.0124 11.5452 12.1187 11.8248 12.1749L12.0002 12.2102C12.039 12.218 12.0784 12.2219 12.1179 12.2219V12.2219C12.4478 12.2219 12.7151 12.4893 12.7151 12.8191C12.7151 12.8838 12.7151 12.9495 12.7151 13.014C12.7151 13.1438 12.7518 13.3222 12.8027 13.5059C12.8455 13.6606 13.0434 13.6256 13.0434 13.465V13.465C13.0434 13.4296 13.0562 13.3954 13.0795 13.3687L13.5584 12.8184C13.9443 12.375 14.6356 12.2469 15.221 12.3007V12.3007C15.6716 12.3421 15.8339 11.9588 15.8339 11.5063C15.8339 11.4057 15.8339 11.2935 15.8339 11.1657C15.8339 11.1295 15.8379 11.0983 15.8455 11.0714C15.953 10.6871 16.6547 10.6407 16.6547 10.2416V10.2416V10.2416C16.6547 9.84569 16.9035 9.49252 17.2763 9.35927L17.9988 9.10101C18.0851 9.07016 18.1584 9.01101 18.2068 8.93319V8.93319C18.3813 8.65248 18.1648 8.28915 17.8345 8.30142C17.1376 8.32732 16.2888 8.3344 15.8339 8.26124C15.0132 8.12921 16.6547 7.4691 16.6547 6.94101V6.94101C16.6547 6.43061 17.0686 6.01685 17.579 6.01685C17.8468 6.01685 18.0716 6.01685 18.132 6.01685C18.2056 6.01685 18.4201 6.01685 18.6425 6.01685C18.9581 6.01685 19.273 5.98698 19.5829 5.92763L22.3746 5.39304C22.5007 5.3689 22.6288 5.35674 22.7571 5.35674H22.9722C23.4415 5.35674 24.0787 4.99073 23.7131 4.69663V4.69663C23.5041 4.52858 24.251 4.29369 24.8957 4.13819C25.1997 4.06488 25.5118 4.03652 25.8245 4.03652C25.988 4.03652 26.1735 4.03652 26.3695 4.03652C27.0936 4.03652 27.5604 3.83026 26.9961 3.3764V3.3764C26.7334 3.16517 26.5584 2.93633 26.5036 2.84831V2.84831C26.1366 2.13989 26.6687 1.29831 27.4661 1.32462C28.5796 1.36135 29.7034 1.39607 29.9508 1.39607V1.39607C30.1652 1.39607 30.6533 1.20064 30.8422 1.30192L32.0869 1.96927C32.1933 2.02633 32.3121 2.05618 32.4328 2.05618H32.6225C32.7016 2.05618 32.7802 2.04992 32.8583 2.03739C34.2627 1.81209 36.9181 1.39607 37.1735 1.39607C37.5018 1.39607 38.815 1.79213 39.4716 2.05618C39.6227 2.11694 39.8136 2.11362 40.0193 2.07073C41.0278 1.86051 42.0797 1.26391 42.9482 1.81793C43.0558 1.88657 43.1569 1.96554 43.2471 2.05618C43.6219 2.43298 44.0502 2.63771 44.4098 2.74405C44.6182 2.80566 44.9799 2.42548 45.0194 2.21178V2.21178C45.037 2.11618 45.1173 2.04969 45.2141 2.03997L47.3314 1.82711C47.5514 1.80498 47.7698 1.88318 47.9258 2.04V2.04C48.1661 2.28158 48.2114 2.66056 47.9832 2.91365C47.6926 3.23613 47.2872 3.57149 46.8585 3.64045V3.64045C46.1799 3.7496 46.6844 4.43258 47.3717 4.43258C47.5239 4.43258 47.6386 4.43258 47.6792 4.43258V4.43258C48.0951 4.43258 48.4943 4.61434 48.742 4.94843C48.8808 5.13554 48.9924 5.3034 48.9924 5.35674C48.9924 5.48876 49.4849 6.14888 49.4849 6.41292C49.4849 6.60417 49.9334 6.80986 50.2213 6.91238C50.2769 6.93218 50.3357 6.94101 50.3947 6.94101V6.94101C50.7081 6.94101 50.9622 7.19512 50.9622 7.50857V7.88105C50.9622 8.12491 50.8675 8.35923 50.698 8.53453L49.8132 9.44944L49.4846 9.71371C49.3875 9.79182 49.3535 9.92463 49.4012 10.0398V10.0398C49.4504 10.1584 49.5734 10.2287 49.7005 10.2095C50.3888 10.1059 51.663 9.90264 52.6038 9.71349C53.5908 9.51503 53.9789 9.76715 54.0676 9.94436C54.0783 9.96563 54.0811 9.98963 54.0811 10.0134V10.0134C54.0811 10.1407 54.1819 10.2451 54.3091 10.2495L57.5775 10.3638C57.763 10.3703 57.9471 10.3979 58.1263 10.4459V10.4459C58.2745 10.4856 58.4186 10.5392 58.5567 10.6058L59.8255 11.2181C59.9341 11.2705 60.0532 11.2978 60.1739 11.2978H60.4351C60.7336 11.2978 60.9755 11.5397 60.9755 11.8381V11.8381C60.9755 11.917 60.9582 11.9949 60.9249 12.0664L60.5562 12.8571C60.5076 12.9613 60.4459 13.0589 60.3725 13.1474V13.1474C60.2296 13.3198 60.0459 13.4539 59.8381 13.5374L59.7825 13.5598C59.5946 13.6353 59.3941 13.6742 59.1917 13.6742C58.8544 13.6742 58.4469 13.6742 58.3491 13.6742V13.6742C57.9864 13.6742 57.6925 13.9681 57.6925 14.3308V14.8624V14.8624C57.6925 15.2394 57.9733 15.5573 58.3476 15.6026C59.0601 15.6888 59.8927 15.7865 59.9906 15.7865C60.095 15.7865 60.4834 15.6751 60.7756 15.5853C60.9081 15.5445 61.0308 15.478 61.1388 15.3911V15.3911C61.5288 15.0774 62.0871 15.0485 62.458 15.3847C62.723 15.6249 62.9453 15.8799 62.9453 16.0506C62.9453 16.247 62.7351 16.4197 62.5101 16.5436C62.3059 16.656 62.1802 16.89 62.2494 17.1126V17.1126C62.275 17.1948 62.2755 17.2829 62.246 17.3638C62.166 17.5834 62.0101 17.9508 61.7962 18.2949C61.6265 18.5679 61.7217 18.7453 61.8694 18.8486C62.0087 18.9459 62.1892 18.8682 62.2908 18.7321V18.7321C62.4585 18.5073 62.7909 18.4948 62.9749 18.7063L63.4878 19.2955C63.6665 19.5009 63.9167 19.6303 64.1876 19.6576L64.5447 19.6935C64.8947 19.7286 65.2477 19.6698 65.5673 19.5229L65.6783 19.4718C66.0337 19.3085 66.435 19.2745 66.8128 19.3758L67.5827 19.5822C67.6592 19.6027 67.7199 19.661 67.7434 19.7367V19.7367C67.7978 19.9116 68.0258 19.9575 68.1492 19.8221C68.3636 19.5869 68.6028 19.3511 68.6905 19.3511C68.758 19.3511 68.9438 19.3511 69.1457 19.3511C69.4978 19.3511 69.8489 19.3892 70.1928 19.4646L70.5443 19.5417C71.1578 19.6763 71.7961 19.6458 72.3941 19.4535L72.93 19.2811C73.057 19.2402 73.1737 19.1728 73.2726 19.0834L73.4959 18.8813C73.9212 18.4965 74.6033 18.7043 74.7417 19.2609V19.2609C74.7566 19.3208 74.7641 19.3823 74.7641 19.4441V19.494C74.7641 19.8834 74.5194 20.2307 74.1528 20.3618V20.3618C73.6742 20.5328 73.4245 21.0591 73.5946 21.538L73.8031 22.125C73.8948 22.383 74.0564 22.6105 74.2698 22.7822L74.3225 22.8246C74.6045 23.0514 74.9671 23.1526 75.3258 23.1045L75.4575 23.0868C75.647 23.0614 75.8397 23.0964 76.0082 23.1867V23.1867C76.4201 23.4076 76.5672 23.9514 76.1211 24.0912C76.1068 24.0957 76.0922 24.0999 76.0773 24.1039V24.1039C75.7935 24.18 76.0136 24.5987 75.9353 24.8819L75.7656 25.4962C75.7547 25.5357 75.7349 25.5721 75.7077 25.6027V25.6027C75.5187 25.8156 75.7485 26.1373 76.0112 26.0274L78.7356 24.888C78.9278 24.8077 79.1412 24.7933 79.3425 24.8473L80.205 25.0785C80.6225 25.1904 80.8401 25.65 80.662 26.0439V26.0439C80.492 26.4198 80.682 26.8605 81.0721 26.9949L81.4943 27.1405V27.1405C81.9271 27.2275 82.3734 27.2213 82.8037 27.1225L83.7354 26.9084C84.1861 26.8048 84.6593 26.9135 85.0196 27.2033V27.2033C85.2878 27.419 85.6216 27.5365 85.9657 27.5365H86.0776C86.5099 27.5365 86.926 27.381 87.2661 27.1142C88.3751 26.2443 89.9702 25.1893 90.1943 25.8202C90.372 26.3203 90.9101 27.0498 91.3921 27.6331C91.7705 28.0908 92 28.6589 92 29.2528V29.2528C92 29.5169 91.5078 29.6489 90.8512 29.6489V29.6489C90.6823 29.6489 89.9478 29.5641 89.7801 29.5833L89.2096 29.6489C87.9511 29.6929 85.3683 29.7545 85.1059 29.6489C84.7778 29.5169 85.1059 29.2528 84.9417 28.7247C84.7776 28.1966 83.3002 30.0449 82.6436 30.309C82.6103 30.3224 82.5803 30.3362 82.5534 30.3504C82.1697 30.5529 82.3802 31.2609 82.1509 31.6292V31.6292C82.0544 31.7843 81.4214 31.7591 80.8751 31.6999C80.5217 31.6617 80.1665 31.6397 79.8114 31.6539C78.9046 31.6901 77.5994 31.7156 77.0624 31.6292C76.2417 31.4972 76.7339 31.6292 76.0773 31.6292C75.4207 31.6292 76.0773 31.3652 75.2568 30.309C75.252 30.3029 75.2473 30.2968 75.2426 30.2909C74.5364 29.3949 73.6525 30.9731 72.5267 31.1578C71.8937 31.2617 71.2982 31.3652 71.153 31.3652C70.8822 31.3652 70.4993 31.0054 69.7278 30.7313C69.3727 30.6052 68.9918 30.5901 68.6158 30.5637C68.2392 30.5373 68.2342 30.4356 67.8698 30.0449C67.3771 29.5169 67.3775 30.309 66.8851 30.573C66.5651 30.7446 65.8623 31.4504 65.3751 31.9688C65.2127 32.1416 64.9388 32.1481 64.7716 31.98V31.98C64.5898 31.7972 64.2872 31.8231 64.1399 32.0347C63.6055 32.8025 62.8364 33.9168 62.6169 34.2697C62.2884 34.7978 62.6171 35.8539 62.453 35.7219C62.2888 35.5899 61.7964 35.7219 61.1398 36.118C60.4832 36.514 62.2888 37.0421 62.453 37.3062C62.5446 37.4536 62.1087 37.7381 61.6695 37.9714C61.3408 38.1461 61.0873 38.4414 60.9974 38.8027V38.8027C60.9829 38.8611 60.9646 38.9182 60.9396 38.973C60.6897 39.521 60.0435 40.4747 59.1699 40.4747C58.7475 40.4747 58.7018 40.6048 58.8288 40.7754C59.2089 41.2854 59.6234 41.807 59.5628 42.4401V42.4401C59.5215 42.8718 59.313 43.2779 58.9412 43.501C58.7437 43.6194 58.5312 43.7265 58.3492 43.7753V43.7753C57.7572 43.934 58.1558 45.077 57.5797 45.2861C56.6856 45.6106 55.7659 45.9502 55.6316 46.0197Z" stroke="#34AB81" stroke-width="2" shape-rendering="crispEdges"/>
</g>
<defs>
<filter id="filter0_d_603_9178" x="0" y="0.272705" width="97" height="55.78" filterUnits="userSpaceOnUse" color-interpolation-filters="sRGB">
<feFlood flood-opacity="0" result="BackgroundImageFix"/>
<feColorMatrix in="SourceAlpha" type="matrix" values="0 0 0 0 0 0 0 0 0 0 0 0 0 0 0 0 0 0 127 0" result="hardAlpha"/>
<feOffset dy="4"/>
<feGaussianBlur stdDeviation="2"/>
<feComposite in2="hardAlpha" operator="out"/>
<feColorMatrix type="matrix" values="0 0 0 0 0 0 0 0 0 0 0 0 0 0 0 0 0 0 0.25 0"/>
<feBlend mode="normal" in2="BackgroundImageFix" result="effect1_dropShadow_603_9178"/>
<feBlend mode="normal" in="SourceGraphic" in2="effect1_dropShadow_603_9178" result="shape"/>
</filter>
</defs>
</svg>
