<svg width="97" height="56" viewBox="0 0 97 56" fill="none" xmlns="http://www.w3.org/2000/svg">
<g filter="url(#filter0_d_603_9269)">
<path d="M36.5777 18.6994C35.9637 18.6143 35.825 17.8155 35.8481 17.095C35.8633 16.6207 35.6815 16.1453 35.2912 15.8751C35.1481 15.776 34.9852 15.7093 34.8137 15.6796L33.5937 15.4684C33.4353 15.441 33.2748 15.4272 33.1141 15.4272C32.7071 15.4272 32.3025 15.3438 31.9454 15.1488C31.3057 14.7995 30.5631 14.3011 30.5631 13.9399C30.5631 13.5001 29.4628 13.2805 28.7871 13.2105C28.683 13.1997 28.5783 13.2115 28.4779 13.2413L28.0798 13.3594C27.6449 13.4884 27.5014 14.0323 27.816 14.3591C27.9245 14.4718 27.9851 14.6222 27.9851 14.7787V15.3364C27.9851 15.633 28.2256 15.8734 28.5222 15.8734C28.8188 15.8734 29.0592 16.1139 29.0592 16.4105V16.6776C29.0592 16.7362 29.0528 16.7947 29.0401 16.852L29.021 16.9381C28.8125 17.8764 27.8331 18.4236 26.9248 18.1092L26.2093 17.8615C26.1044 17.8252 26.0025 17.782 25.9053 17.7285C25.3041 17.3975 24.3333 16.7578 24.3333 16.3196C24.3333 15.8437 23.6174 15.8238 23.2594 15.8734L22.8434 15.9814C21.9902 16.2029 21.2108 16.6461 20.584 17.2659L20.4734 17.3754C20.1836 17.662 19.8596 17.9115 19.5109 18.1226C18.9639 18.4536 18.2637 18.8861 17.8889 19.1456C17.2444 19.5918 18.5333 19.7405 20.037 19.7405C20.4682 19.7405 20.8571 19.7787 21.1917 19.8346C21.7571 19.929 21.5409 20.5059 21.5409 21.0791C21.5409 22.1086 22.9683 22.4942 23.9921 22.6022C24.5861 22.6648 25.1476 22.7152 25.4074 22.7152C25.6072 22.7152 25.5122 22.8642 25.2751 23.0756C24.4088 23.8477 23.8831 24.9646 24.1697 26.089C24.2771 26.5106 24.2702 26.9524 24.2458 27.3868C24.2269 27.7237 24.2401 28.1285 24.3333 28.5158C24.5481 29.4082 24.7629 28.962 25.4075 28.962C26.4262 28.962 25.2678 31.5292 26.2283 31.19C26.2843 31.1703 26.367 31.1236 26.4814 31.0443C27.5554 30.3006 29.9185 30.3006 29.9185 31.0443C29.9185 31.788 29.9185 32.0854 30.5631 32.5316C31.1475 32.9362 30.8589 33.6654 30.2745 34.07L30.1016 34.1897C29.9798 34.274 29.8508 34.3469 29.7179 34.4126C29.2322 34.6524 28.4316 35.0942 27.9851 35.5063C27.3405 36.1013 27.126 35.8038 26.4814 35.8038C25.8368 35.8038 22.1852 36.25 21.5409 36.25C20.8966 36.25 20.037 36.25 19.6074 35.8038C19.1778 35.3576 16.3853 34.9114 15.0964 34.9114H13.3778C13.2477 34.9114 13.0967 34.8862 12.9379 34.8452C12.0592 34.6189 11.4345 33.8908 10.918 33.1448C10.8786 33.0878 10.8392 33.0319 10.8001 32.9778C10.5692 32.6579 9.93687 32.9473 9.37313 33.322C8.88237 33.6482 8.33575 33.8976 7.74867 33.9484C7.21628 33.9945 6.70823 34.1922 6.28468 34.518L5.29916 35.2762C5.11053 35.4213 5 35.6458 5 35.8838C5 36.1154 5.10471 36.3346 5.28489 36.4801L5.49871 36.6529C5.86266 36.9468 5.79142 37.5208 5.36663 37.7168C5.14312 37.82 5 38.0436 5 38.2897V39.5222C5 39.9684 6.71852 40.712 7.36296 41.0095C8.0074 41.307 8.86666 41.0095 9.5111 41.0095C10.6967 41.0095 11.8367 41.3139 11.3655 42.4018C11.2278 42.7198 11.0435 43.0523 10.8001 43.3892C9.76903 44.8171 11.6594 45.1741 12.7335 45.1741H13.8409C14.6294 45.1741 15.3699 44.7954 15.8315 44.1561L15.988 43.9395C16.2437 43.5853 16.6219 43.3388 17.0491 43.2478L17.57 43.1369C18.3979 42.9605 19.1779 43.5918 19.1779 44.4383C19.1779 45.1732 19.7737 45.769 20.5086 45.769H20.8429C21.283 45.769 21.6982 45.9733 21.9668 46.3219C22.5829 47.1218 23.8139 47.0402 24.319 46.1659L24.8087 45.3183C25.1793 44.6768 25.8638 44.2816 26.6047 44.2816H27.126L27.8527 44.2098C28.3676 44.1588 28.876 44.0367 29.331 43.7904C29.8704 43.4984 30.4473 43.1148 30.5631 42.7943C30.7349 42.3184 31.0643 42.596 31.2075 42.7943L31.632 43.5291C31.8166 43.8487 32.2837 43.8311 32.4438 43.4986C32.4783 43.4269 32.5308 43.3654 32.5962 43.3202L32.8901 43.1167C33.1932 42.9068 33.553 42.7943 33.9218 42.7943H35.5038C35.8333 42.7943 36.4144 42.9563 36.9218 43.1251C37.32 43.2575 37.4063 43.7927 37.6519 44.1329C37.8668 44.4304 38.5112 44.1329 39.8001 43.8354C40.7472 43.6169 40.6504 43.4786 41.1291 43.7157C41.6695 43.9834 42.2599 44.3857 42.8075 44.1329L42.948 44.0721C43.9706 43.6296 45.1075 43.5689 46.2078 43.745C46.5444 43.7989 46.8628 43.8354 47.1038 43.8354H48.1533C48.3128 43.8354 48.4719 43.8237 48.6296 43.8003L51.0916 43.435C51.2688 43.4087 51.4001 43.2566 51.4001 43.0774C51.4001 42.9111 51.5135 42.7663 51.6749 42.7264L54.4075 42.0506L58.0593 41.6044H61.8742C63.5203 41.6044 64.993 40.728 66.157 39.5639C67.1061 38.6146 67.5112 38.6009 67.5112 37.8861C67.5112 36.8449 66.8667 36.8449 66.8667 36.25C66.8667 35.6551 66.8667 35.3576 66.2223 34.9114C66.0243 34.7743 65.8834 34.6621 65.7848 34.5731C65.6347 34.4374 65.456 34.2659 65.2692 34.1882C64.9213 34.0437 64.84 33.5684 65.0984 33.2943C65.5654 32.7986 66.2043 32.0381 66.8667 31.0443C67.3823 30.0924 67.0815 30.1519 66.8667 30.3006L67.8088 29.4309C68.2718 29.0034 67.6674 28.1912 67.9408 27.6234C68.2067 27.0711 69.062 27.0663 69.5581 26.7062C69.9746 26.404 70.4338 26.1361 70.7334 26.1361C71.9934 26.1361 73.2356 26.0198 74.4837 25.8472C74.5246 25.8416 74.5635 25.8386 74.6 25.8386C75.1156 25.8386 75.9605 26.0369 76.3185 26.1361C77.2814 26.517 78.3514 26.4869 79.3208 26.1233C79.6667 25.9936 79.9839 25.8851 80.1852 25.8386C80.8297 25.6899 81.6889 24.6487 82.5482 24.3513C83.3021 24.0903 83.3945 23.8293 83.5509 22.865C83.5992 22.5677 83.6299 22.2243 83.9255 22.1668C84.5698 22.0415 85.3239 22.55 85.8485 22.1556C86.1629 21.9192 86.4148 21.4974 86.4148 20.7816C86.4148 19.7935 88.0415 20.7816 89.0297 20.7816H89.8596C89.997 20.7816 90.1338 20.8002 90.2662 20.8369L90.7044 20.9583C90.9732 21.0327 91.2613 20.9539 91.4548 20.753C91.7529 20.4434 91.7352 19.9484 91.4158 19.6608L90.0798 18.4584C89.9347 18.3277 89.8519 18.1417 89.8519 17.9465V17.7471C89.8519 17.3508 89.449 17.0819 89.083 17.234C88.8949 17.3121 88.6791 17.2811 88.5207 17.1531L87.9693 16.7077C87.6584 16.4566 87.2685 16.3265 86.8762 16.2502C86.5482 16.1864 86.1506 16.0708 85.7704 15.8734C84.9111 15.4272 83.6222 16.3196 83.4074 15.8734C83.1926 15.4272 83.4074 15.4272 83.6222 15.1297C83.6848 15.0431 83.6923 14.9539 83.6697 14.8707C83.594 14.592 83.2753 14.4748 83.0151 14.3496C82.5507 14.126 81.9484 13.8221 81.6889 13.6424C81.4435 13.4725 80.7452 13.343 80.1573 13.2648C79.7488 13.2104 79.3389 13.1371 78.972 12.9494C78.5413 12.7291 78.0499 12.4003 77.8222 12.0063C77.7467 11.8756 77.1789 11.3682 77.0298 11.3447C76.4534 11.2536 75.7952 11.0554 75.4593 10.6677C74.8148 9.92405 74.8148 9.77532 74.6 9.32911C74.4282 8.97215 74.0988 8.78376 73.9556 8.73418C73.526 8.53587 72.6667 8.05 72.6667 7.69304C72.6667 7.24684 72.0223 6.50316 72.0223 6.05696C72.0223 5.61076 70.3037 6.05696 69.4445 5.01582C69.113 4.61414 68.2026 4.61602 67.6881 4.53512C66.8503 4.4034 65.9203 4.27215 65.5778 4.27215C64.9334 4.27215 64.9334 3.37975 65.5778 2.63608C66.1857 1.93463 64.5273 2.1122 63.9396 2.83056C63.9073 2.87005 63.8801 2.90483 63.8593 2.93354C63.6875 3.17152 63.0717 3.72679 62.7852 3.97468L61.881 4.85119C61.7724 4.95642 61.7112 5.10117 61.7112 5.25237C61.7112 5.64202 61.3224 5.91201 60.9573 5.77589L59.9167 5.38793C59.3536 5.17802 59.1334 4.57556 59.1334 3.97468V3.67722C59.1334 3.42932 59.2193 2.87405 59.563 2.63608C59.7872 2.48083 60.1456 2.31714 60.4471 2.19457C60.6872 2.09697 60.8519 1.86731 60.8519 1.60813C60.8519 1.27227 60.5797 1 60.2439 1H59.1334C58.932 1 59.0158 1.17018 59.1773 1.36098C59.3846 1.60595 59.4664 1.94444 59.3272 2.23361C59.2087 2.47965 58.9598 2.63608 58.6867 2.63608H58.1783C57.9584 2.63608 57.7411 2.58834 57.5414 2.49617L57.2001 2.33861C56.7755 2.14263 56.3134 2.04114 55.8458 2.04114H55.8257C55.4556 2.04114 55.0839 2.09415 54.7506 2.25501C54.5161 2.36822 54.2872 2.50515 54.1927 2.63608C53.9778 2.93354 53.763 3.08228 53.3334 3.37975C53.2371 3.44643 53.161 3.51466 53.1014 3.58053C52.9741 3.72125 52.6906 3.82709 52.5346 3.71906C52.4952 3.69181 52.4485 3.67722 52.4006 3.67722H51.6149H50.9152C50.6696 3.67722 50.4281 3.73963 50.2133 3.8586L49.8571 4.05595C49.6162 4.18936 49.4667 4.44301 49.4667 4.71835V6.05696V6.63301C49.4667 7.08944 49.1775 7.49572 48.7461 7.64504C48.6541 7.67689 48.5669 7.72114 48.4869 7.77656L48.4596 7.79542C48.1444 8.01364 47.9478 8.36039 47.8666 8.73503C47.7173 9.42348 47.4102 10.2215 46.889 10.2215H45.7676C45.513 10.2215 45.2592 10.2411 45.0075 10.2788C44.2537 10.3916 43.0273 10.568 42.1631 10.6677C41.5572 10.7376 40.8211 11.6529 40.2449 11.8524L39.9287 11.9618C39.8436 11.9913 39.7541 12.0063 39.664 12.0063H39.4991C39.0184 12.0063 38.55 12.6419 38.0816 12.75C37.566 12.869 37.4371 13.097 37.4371 13.1962V13.7262C37.4371 14.1142 37.046 14.3801 36.6852 14.2373L36.4865 14.1587C36.221 14.0537 35.9333 14.2493 35.9333 14.5348V14.9751C35.9333 15.2248 36.1357 15.4272 36.3854 15.4272C36.5083 15.4272 36.6259 15.4772 36.7111 15.5657L37.2727 16.1489C37.382 16.2624 37.479 16.3872 37.5619 16.5212C37.8928 17.0557 38.0276 17.7462 37.625 18.2291C37.372 18.5325 37.0229 18.761 36.5777 18.6994Z" stroke="#34AB81" stroke-width="2" shape-rendering="crispEdges"/>
</g>
<defs>
<filter id="filter0_d_603_9269" x="0" y="0" width="96.6673" height="55.875" filterUnits="userSpaceOnUse" color-interpolation-filters="sRGB">
<feFlood flood-opacity="0" result="BackgroundImageFix"/>
<feColorMatrix in="SourceAlpha" type="matrix" values="0 0 0 0 0 0 0 0 0 0 0 0 0 0 0 0 0 0 127 0" result="hardAlpha"/>
<feOffset dy="4"/>
<feGaussianBlur stdDeviation="2"/>
<feComposite in2="hardAlpha" operator="out"/>
<feColorMatrix type="matrix" values="0 0 0 0 0 0 0 0 0 0 0 0 0 0 0 0 0 0 0.25 0"/>
<feBlend mode="normal" in2="BackgroundImageFix" result="effect1_dropShadow_603_9269"/>
<feBlend mode="normal" in="SourceGraphic" in2="effect1_dropShadow_603_9269" result="shape"/>
</filter>
</defs>
</svg>
