<svg width="75" height="51" viewBox="0 0 75 51" fill="none" xmlns="http://www.w3.org/2000/svg">
<path d="M44.4456 4.35204C43.6892 4.95372 43.5638 6.05464 44.1655 6.81101C44.7672 7.56738 45.8681 7.69278 46.6245 7.09109L44.4456 4.35204ZM46.6245 7.09109C50.3871 4.09794 53.7968 3.49103 56.4568 4.05523C59.1554 4.62759 61.3344 6.45452 62.5359 8.79849C63.7362 11.14 63.9127 13.8973 62.7444 16.3144C61.5878 18.7071 58.9738 21.0447 54.0478 22.2547L54.8827 25.6537C60.5614 24.2587 64.18 21.3868 65.8956 17.8375C67.5993 14.3126 67.2875 10.3953 65.6505 7.20191C64.0148 4.01098 61.0077 1.44261 57.183 0.631394C53.3198 -0.187986 48.869 0.833237 44.4456 4.35204L46.6245 7.09109Z" fill="#FAC710"/>
<path d="M54.8372 23.5815C60.7907 23.8296 72.7722 27.8234 73.0698 41.8142" stroke="#FAC710" stroke-width="3.5"/>
<path d="M30.6244 4.2368C31.3808 4.83849 31.5062 5.93941 30.9045 6.69578C30.3028 7.45215 29.2019 7.57754 28.4455 6.97586L30.6244 4.2368ZM28.4455 6.97586C24.6829 3.98271 21.2732 3.3758 18.6132 3.93999C15.9146 4.51236 13.7356 6.33928 12.5341 8.68325C11.3338 11.0247 11.1573 13.782 12.3256 16.1991C13.4822 18.5919 16.0961 20.9294 21.0222 22.1395L20.1873 25.5384C14.5086 24.1435 10.89 21.2715 9.17443 17.7223C7.47064 14.1973 7.7825 10.2801 9.41946 7.08668C11.0551 3.89574 14.0622 1.32738 17.887 0.51616C21.7502 -0.30322 26.201 0.718003 30.6244 4.2368L28.4455 6.97586Z" fill="#FAC710"/>
<path d="M20.2324 23.4663C14.2789 23.7144 2.2975 27.7082 1.99982 41.6989" stroke="#FAC710" stroke-width="3.5"/>
<circle cx="37.3492" cy="20.9769" r="10.5291" stroke="#34AB81" stroke-width="3.5"/>
<path d="M18.7441 49.9999C20.2328 29.5349 49.6283 22.4651 56.6977 49.9999" stroke="#34AB81" stroke-width="3.5"/>
</svg>
