<svg width="88" height="49" viewBox="0 0 88 49" fill="none" xmlns="http://www.w3.org/2000/svg">
<path fill-rule="evenodd" clip-rule="evenodd" d="M61.4791 16.2265C61.1719 16.7598 60.7541 17.3049 60.2118 17.8589C58.8274 19.2731 56.726 20.6384 53.9725 21.8282C48.4721 24.2049 40.7338 25.7242 32.0811 25.7242C23.4284 25.7242 15.69 24.2049 10.1896 21.8282C7.43611 20.6384 5.33472 19.2731 3.95033 17.8589C3.207 17.0995 2.69751 16.3568 2.3862 15.6383L2.3862 15.5319L2.34146 15.5319C2.10771 14.9583 2 14.4004 2 13.8621C2 12.6187 2.57476 11.2706 3.95033 9.86539C5.33472 8.4511 7.43611 7.08585 10.1896 5.89606C15.69 3.51936 23.4284 2 32.0811 2C40.7338 2 48.4721 3.51936 53.9725 5.89606C56.726 7.08585 58.8274 8.4511 60.2118 9.86539C61.5874 11.2706 62.1621 12.6187 62.1621 13.8621C62.1621 14.5611 61.9805 15.2931 61.5772 16.0497H61.4791V16.2265ZM61.4791 19.4204C57.8225 23.0262 50.7167 25.8305 41.965 27.0539L61.4791 27.3187V19.4204ZM6.0663 21.9756C4.59308 21.0952 3.35336 20.1371 2.38637 19.1181L2.3872 36.5662C2.92753 37.8523 4.22739 39.5776 6.73317 41.25V34.1689H8.73317V42.4284C9.2419 42.6937 9.78586 42.9544 10.367 43.2084C12.9905 44.355 16.357 45.3565 20.6254 46.0142V38.4249H22.6254V46.2884C26.0073 46.697 29.9018 46.8987 34.3744 46.8116V39.0328H36.3744V46.7598C40.4287 46.6497 44.3592 46.5699 48.1235 46.5148V39.0328H50.1235V46.4876C54.3326 46.4347 58.3174 46.4123 62.0157 46.412V39.0328H64.0157V46.4139C68.4176 46.423 72.372 46.4628 75.7648 46.5177V39.0328H77.7648V46.553C80.837 46.6117 83.3561 46.6818 85.2168 46.7489V29.3323H62.4791H62.4656L62.4656 29.3322L26.6241 28.8459L26.5492 28.8448L26.4753 28.8327C24.0786 28.4382 20.0742 27.4759 16.1412 26.261C12.2383 25.0554 8.26311 23.5585 6.01049 22.0595L6.0663 21.9756ZM63.4791 16.721V27.3323H86.2168H87.2168V28.3323V47.7879V48.8298L86.1759 48.7871C79.2776 48.5044 59.441 48.1072 35.4023 48.7875C23.2735 49.1308 15.0259 47.4273 9.56603 45.041C4.11871 42.6602 1.38863 39.5688 0.452857 37.1152L0.387218 36.9431L0.38721 36.7589L0.386222 16.0195C0.131972 15.3165 0 14.596 0 13.8621C0 6.20628 14.3632 0 32.0811 0C49.799 0 64.1621 6.20628 64.1621 13.8621C64.1621 14.8421 63.9268 15.7984 63.4791 16.721ZM39.0318 16.1009C41.0044 15.2118 41.2514 14.3954 41.2514 14.2271C41.2514 14.0587 41.0044 13.2423 39.0318 12.3532C37.2457 11.5481 34.6379 10.9984 31.6506 10.9984C28.6634 10.9984 26.0556 11.5481 24.2695 12.3532C22.2968 13.2423 22.0499 14.0587 22.0499 14.2271C22.0499 14.3954 22.2968 15.2118 24.2695 16.1009C26.0556 16.906 28.6634 17.4557 31.6506 17.4557C34.6379 17.4557 37.2457 16.906 39.0318 16.1009ZM31.6506 19.4557C38.0575 19.4557 43.2514 17.1148 43.2514 14.2271C43.2514 11.3393 38.0575 8.99836 31.6506 8.99836C25.2437 8.99836 20.0499 11.3393 20.0499 14.2271C20.0499 17.1148 25.2437 19.4557 31.6506 19.4557Z" fill="#34AB81"/>
</svg>
