<svg width="100" height="55" viewBox="0 0 100 55" fill="none" xmlns="http://www.w3.org/2000/svg">
<g filter="url(#filter0_d_603_9182)">
<path d="M5.39494 27.8721L6.3431 29.938C6.37896 30.0161 6.39752 30.101 6.39752 30.187C6.39752 30.6101 6.82547 30.8989 7.21781 30.7406L7.68841 30.5507C7.93429 30.4515 8.21065 30.4608 8.44929 30.5763L8.50649 30.604C9.04119 30.8629 9.68465 30.6426 9.94849 30.1103L9.98767 30.0313C10.1854 29.6323 10.5923 29.3799 11.0376 29.3799H11.9876H12.5111C12.7143 29.3799 12.9107 29.453 13.0643 29.5859L13.5236 29.9829C13.9578 30.3584 15.3416 31.8508 15.3416 32.4248C15.3416 32.4553 15.3484 32.483 15.3612 32.5077C15.7263 33.2148 17.1826 32.7574 17.6214 33.4214C17.7737 33.6519 18.0018 33.8219 18.2664 33.902L21.2112 34.7931C22.3292 35.1314 22.0497 35.1314 23.1677 35.1314C24.2857 35.1314 23.1677 35.8081 23.1677 36.8231C23.1677 36.8467 23.1682 36.8692 23.1691 36.8907C23.2049 37.7222 24.4132 36.666 25.1742 36.3289C25.6046 36.1383 26.02 35.9426 26.2422 35.8081C26.8012 35.4698 27.0807 34.4548 27.0807 33.7781C27.0807 33.1015 27.6398 32.7632 27.9193 32.0865C28.103 31.6416 29.0548 33.4519 29.75 34.9248C29.8452 35.1264 30.1553 35.0588 30.1553 34.8358C30.1553 34.6719 30.3372 34.5733 30.4745 34.6629L33.418 36.5814C33.6493 36.7321 33.7888 36.9896 33.7888 37.2657C33.7888 37.6093 34.0033 37.916 34.3264 38.0327C36.2955 38.7442 39.4546 39.868 39.6584 39.868C40.8112 39.868 39.8742 42.2018 40.9819 42.5211L43.527 43.2545C44.2843 43.4728 44.9357 43.9402 45.528 44.4602C45.8359 44.7304 46.1494 44.9429 46.3665 44.9429C46.9255 44.9429 46.9255 42.5746 46.646 41.8979C46.3665 41.2213 47.764 40.5446 47.764 39.868C47.764 39.1913 47.4845 38.5147 46.9255 38.5147C46.3665 38.5147 48.882 36.8231 49.7205 35.1314C50.1077 34.3502 50.8144 34.2314 51.4797 34.7951L52.5908 35.7365C52.9099 36.0069 53.1905 36.3343 53.3004 36.7379C53.4451 37.2695 53.4301 37.838 52.795 37.838C51.677 37.838 56.4286 38.5147 57.5466 38.5147C58.3709 38.5147 58.942 39.281 59.1723 39.7543C59.2084 39.8286 59.2236 39.9105 59.2236 39.9931C59.2236 40.3089 59.4572 40.5761 59.7702 40.6182L63.0358 41.0574C63.8331 41.1646 64.5857 41.4884 65.2117 41.9936L65.2392 42.0158C65.6965 42.3848 66.0845 42.8372 66.2998 43.3839C66.4695 43.8147 66.6496 44.3591 66.7702 44.9429C66.8896 45.5209 67.0674 45.8032 67.2355 45.9236C67.4507 46.0776 67.7101 45.8719 67.912 45.7009L69.9293 43.9916C70.2384 43.7297 70.4613 43.3806 70.5688 42.9901C70.6442 42.7162 70.7768 42.4614 70.9577 42.2424L71.5525 41.5224C72.0826 40.8807 72.7783 40.3145 73.6076 40.3846C74.1862 40.4334 74.8489 40.6539 75.4348 41.2213C76.8323 42.5746 76.2733 41.5596 76.5528 41.5596C76.8323 41.5596 77.1118 40.2063 77.1118 39.868C77.1118 38.8297 76.3398 37.9267 76.0579 36.9275C75.929 36.4706 75.7309 36.0471 75.4348 35.8081C74.7119 35.2248 76.3809 34.4571 76.6237 33.5606C76.7562 33.0715 76.9203 32.5501 77.1118 32.0865C77.6708 30.7332 79.3478 33.4398 83.5404 31.4099C87.1739 29.0416 84.0994 32.0865 84.0994 32.7632C84.0994 33.5365 85.0924 31.9678 85.8098 31.679C86.4832 31.4078 87.1816 31.0622 87.4534 30.7332C88.1159 29.9312 88.4526 32.3433 89.4922 32.3808C90.1593 32.4049 90.9168 32.3387 91.646 32.0865C92.2042 31.8934 92.5493 31.3763 92.7035 30.806C92.8951 30.0975 93.1131 29.3383 93.323 28.7032C93.7702 27.3499 93.882 29.2671 93.882 30.3949L94.3181 25.908C94.3878 25.1906 95 24.3492 95 23.6284C95 22.6134 92.764 22.2751 92.205 22.2751C91.4876 22.2751 92.7419 23.5129 92.2174 24.0023C91.3396 24.8213 90.4007 25.6583 90.2484 25.6583C89.9689 25.6583 88.0124 24.6433 87.4534 25.6583C86.8944 26.6733 86.6149 25.6583 84.6584 24.6433C82.7019 23.6284 83.8199 24.305 83.5404 23.6284C83.2609 22.9517 85.7764 21.5984 86.8944 20.9218C88.0124 20.2451 87.1739 20.2451 86.8944 19.9068C86.6149 19.5685 83.2609 19.9068 82.4224 19.9068C81.5839 19.9068 81.5838 20.2451 79.3478 19.9068C77.1118 19.5685 79.0683 19.2301 78.5093 18.5535C78.2759 18.2709 77.827 18.5535 77.4605 18.5535H74.8758H72.9569C72.5605 18.5535 72.1655 18.5078 71.7821 18.4077C70.7973 18.1506 69.4694 17.7608 69.2857 17.5385C69.0062 17.2002 69.2857 16.5235 69.2857 15.8469C69.2857 15.4148 68.0988 14.8104 67.1459 14.412C66.715 14.2318 66.2937 14.0212 65.9539 13.7007C65.4254 13.2022 64.7317 12.411 64.2547 11.4486C63.4161 9.75701 63.1366 10.4337 62.8571 9.757C62.5776 9.08035 60.9006 10.4337 60.3416 10.4337H57.8261C57.2816 10.4337 57.633 9.44543 57.3463 8.98262L57.237 8.80618C57.0744 8.54378 56.8376 8.33619 56.5578 8.20569C55.7095 7.80999 54.3834 7.16591 53.6335 6.71207C52.5155 6.03541 51.3975 5.6971 51.118 5.6971C50.8385 5.6971 50.1519 4.87088 49.3106 5.02043C48.1053 5.23467 47.764 6.03542 47.4845 5.6971C47.205 5.35877 44.1304 6.03542 43.5714 5.02043C43.0124 4.00543 43.8509 4.00545 43.5714 2.99049C43.2919 1.97553 39.9379 1.97545 39.0994 1.29886C38.5771 0.877436 37.8533 1.46335 37.2309 1.71441L37.1589 1.74347C36.7867 1.8936 36.3751 1.91031 35.9877 1.80574C35.1404 1.57707 33.9322 1.29886 33.2298 1.29886C32.2735 1.29886 31.8867 2.69441 31.331 3.47266C31.2117 3.63967 31.0968 3.81837 30.9938 4.00545C30.4348 5.02041 29.8758 4.34373 29.5963 4.34373C29.3168 4.34373 29.0373 4.00545 29.0373 2.99049C29.0373 2.4667 28.7271 2.1963 28.4069 2.07034C28.0977 1.94872 27.7541 2.00397 27.4345 2.09473C26.8269 2.26728 26.0257 2.576 25.6832 2.99049C25.1242 3.66716 25.4537 3.08726 24.8947 2.74888C24.2218 2.34157 23.2782 2.63955 22.6418 3.10176L21.6875 3.79477C21.2923 4.08185 21.0708 3.52921 20.6316 3.74316C20.0932 4.00545 20.6316 3.77052 20.0932 4.00545C19.4978 4.26521 19.2547 4.6821 18.4161 5.02043C17.5776 5.35875 17.287 6.03744 16.1801 6.71207C15.3416 7.22314 15.6211 7.72705 15.3416 8.4037C15.2132 8.71456 15.3859 9.78409 15.6268 10.8947C15.9204 12.2485 15.3608 13.9119 13.9897 13.7141C13.8805 13.6983 13.7715 13.6744 13.6635 13.6411C13.06 13.455 12.4727 13.1403 11.8412 13.1403H11.7752C11.7303 13.1403 11.6857 13.1378 11.6412 13.1329C10.5456 13.0123 9.85868 14.2849 10.5607 15.1346L10.5901 15.1702C11.2422 16.0724 12.6025 17.9445 12.8261 18.2151C13.1787 18.6419 12.7765 19.2301 12.2229 19.2301H11.9876C11.7081 19.2301 10.8696 19.2301 10.5901 18.2151C10.3665 17.4032 9.75155 17.8768 9.47205 18.2151C9.28571 18.4407 8.80124 18.9595 8.35404 19.2301C7.79503 19.5684 8.35404 22.275 8.35404 22.6134C8.35404 23.2208 7.9595 23.7648 7.38539 23.9633C6.79988 24.1658 6.39752 24.7206 6.39752 25.3401V25.7291C6.39752 26.0996 6.18568 26.4375 5.85218 26.599C5.37872 26.8282 5.17552 27.394 5.39494 27.8721Z" stroke="#34AB81" stroke-width="2" shape-rendering="crispEdges"/>
</g>
<defs>
<filter id="filter0_d_603_9182" x="0.306396" y="0.150635" width="99.6936" height="54.8271" filterUnits="userSpaceOnUse" color-interpolation-filters="sRGB">
<feFlood flood-opacity="0" result="BackgroundImageFix"/>
<feColorMatrix in="SourceAlpha" type="matrix" values="0 0 0 0 0 0 0 0 0 0 0 0 0 0 0 0 0 0 127 0" result="hardAlpha"/>
<feOffset dy="4"/>
<feGaussianBlur stdDeviation="2"/>
<feComposite in2="hardAlpha" operator="out"/>
<feColorMatrix type="matrix" values="0 0 0 0 0 0 0 0 0 0 0 0 0 0 0 0 0 0 0.25 0"/>
<feBlend mode="normal" in2="BackgroundImageFix" result="effect1_dropShadow_603_9182"/>
<feBlend mode="normal" in="SourceGraphic" in2="effect1_dropShadow_603_9182" result="shape"/>
</filter>
</defs>
</svg>
