<svg width="84" height="50" viewBox="0 0 84 50" fill="none" xmlns="http://www.w3.org/2000/svg">
<path d="M22.3764 1H1V8.74197H22.3764V1Z" fill="#34AB81" stroke="white" stroke-width="2"/>
<path d="M45.5593 1H22.6775V8.74197H45.5593V1Z" fill="#34AB81" stroke="white" stroke-width="2"/>
<path d="M37.7312 8.74194H16.0537V17H37.7312V8.74194Z" fill="#34AB81" stroke="white" stroke-width="2"/>
<path d="M37.7312 24.7422H16.0537V33.0003H37.7312V24.7422Z" fill="#34AB81" stroke="white" stroke-width="2"/>
<path d="M22.6775 33.0002H1V40.7422H22.6775V33.0002Z" fill="#34AB81" stroke="white" stroke-width="2"/>
<path d="M37.7312 40.7419H16.0537V49H37.7312V40.7419Z" fill="#34AB81" stroke="white" stroke-width="2"/>
<path d="M46.1617 33.0002H22.6777V40.7422H46.1617V33.0002Z" fill="#34AB81" stroke="white" stroke-width="2"/>
<path d="M61.2154 24.7422H37.7314V33.0003H61.2154V24.7422Z" fill="#34AB81" stroke="white" stroke-width="2"/>
<path d="M82.2902 24.7422H61.2148V33.0003H82.2902V24.7422Z" fill="#34AB81" stroke="white" stroke-width="2"/>
<path d="M67.2365 33.0002H46.1611V40.7422H67.2365V33.0002Z" fill="#34AB81" stroke="white" stroke-width="2"/>
<path d="M61.2154 40.7419H37.7314V49H61.2154V40.7419Z" fill="#34AB81" stroke="white" stroke-width="2"/>
<path d="M82.2902 40.7419H61.2148V49H82.2902V40.7419Z" fill="#34AB81" stroke="white" stroke-width="2"/>
<path d="M22.6775 17.0002H1V24.7422H22.6775V17.0002Z" fill="#34AB81" stroke="white" stroke-width="2"/>
<path d="M46.1617 17.0002H22.6777V24.7422H46.1617V17.0002Z" fill="#34AB81" stroke="white" stroke-width="2"/>
<path d="M61.2154 8.74194H37.7314V17H61.2154V8.74194Z" fill="#34AB81" stroke="white" stroke-width="2"/>
<path d="M82.2902 8.74194H61.2148V17H82.2902V8.74194Z" fill="#34AB81" stroke="white" stroke-width="2"/>
<path d="M67.2365 17.0002H46.1611V24.7422H67.2365V17.0002Z" fill="#34AB81" stroke="white" stroke-width="2"/>
<path d="M67.2371 1H45.5596V8.74197H67.2371V1Z" fill="#34AB81" stroke="white" stroke-width="2"/>
<path d="M16.0538 17V8.74194H1V17H16.0538Z" fill="#34AB81" stroke="white" stroke-width="2"/>
<path d="M16.0538 33.0003V24.7422H1V33.0003H16.0538Z" fill="#34AB81" stroke="white" stroke-width="2"/>
<path d="M82.2911 8.74197V1H67.2373V8.74197H82.2911Z" fill="#34AB81" stroke="white" stroke-width="2"/>
<path d="M82.2911 24.7422V17.0002H67.2373V24.7422H82.2911Z" fill="#34AB81" stroke="white" stroke-width="2"/>
<path d="M82.2911 40.7422V33.0002H67.2373V40.7422H82.2911Z" fill="#34AB81" stroke="white" stroke-width="2"/>
<path d="M16.0538 49V40.7419H1V49H16.0538Z" fill="#34AB81" stroke="white" stroke-width="2"/>
</svg>
