<svg width="107" height="62" viewBox="0 0 107 62" fill="none" xmlns="http://www.w3.org/2000/svg">
<path d="M2.9899 26.7968L22.4142 1.5H33.3713L20.7509 27.2098L2.9899 26.7968Z" stroke="white" stroke-width="3"/>
<path d="M103.393 25.3993L86.5996 1.5H75.9214L85.9604 26.6445L103.393 25.3993Z" stroke="white" stroke-width="3"/>
<path d="M28.4705 13.1179L33.6785 1.5H46.8607L44.2059 13.1179H28.4705Z" stroke="white" stroke-width="3"/>
<path d="M63.1999 12.766L62.2611 1.5H76.5577L78.9836 12.766H63.1999Z" stroke="white" stroke-width="3"/>
<path d="M14.5049 40.1091L27.6965 12.3611H44.1085L39.1048 40.1091H14.5049Z" stroke="white" stroke-width="3"/>
<path d="M67.5581 40.7284L63.0085 12.0657L79.4317 12.4979L92.1953 39.8485L67.5581 40.7284Z" stroke="white" stroke-width="3"/>
<path d="M35.0792 60.5L45.632 1.5H59.7451L69.8182 60.5H35.0792Z" stroke="white" stroke-width="3"/>
</svg>
