<svg width="113" height="79" viewBox="0 0 113 79" fill="none" xmlns="http://www.w3.org/2000/svg">
<path d="M30.6292 2H2V14.0968H30.6292V2Z" stroke="white" stroke-width="3"/>
<path d="M61.6775 2H31.0322V14.0968H61.6775V2Z" stroke="white" stroke-width="3"/>
<path d="M51.1935 14.0967H22.1611V27H51.1935V14.0967Z" stroke="white" stroke-width="3"/>
<path d="M51.1935 39.0972H22.1611V52.0004H51.1935V39.0972Z" stroke="white" stroke-width="3"/>
<path d="M31.0324 52.0002H2V64.0971H31.0324V52.0002Z" stroke="white" stroke-width="3"/>
<path d="M51.1935 64.0967H22.1611V77H51.1935V64.0967Z" stroke="white" stroke-width="3"/>
<path d="M62.484 52.0002H31.0322V64.0971H62.484V52.0002Z" stroke="white" stroke-width="3"/>
<path d="M82.6451 39.0972H51.1934V52.0004H82.6451V39.0972Z" stroke="white" stroke-width="3"/>
<path d="M110.871 39.0972H82.6455V52.0004H110.871V39.0972Z" stroke="white" stroke-width="3"/>
<path d="M90.7103 52.0002H62.4844V64.0971H90.7103V52.0002Z" stroke="white" stroke-width="3"/>
<path d="M82.6451 64.0967H51.1934V77H82.6451V64.0967Z" stroke="white" stroke-width="3"/>
<path d="M110.871 64.0967H82.6455V77H110.871V64.0967Z" stroke="white" stroke-width="3"/>
<path d="M31.0324 27H2V39.0968H31.0324V27Z" stroke="white" stroke-width="3"/>
<path d="M62.484 27H31.0322V39.0968H62.484V27Z" stroke="white" stroke-width="3"/>
<path d="M82.6451 14.0967H51.1934V27H82.6451V14.0967Z" stroke="white" stroke-width="3"/>
<path d="M110.871 14.0967H82.6455V27H110.871V14.0967Z" stroke="white" stroke-width="3"/>
<path d="M90.7103 27H62.4844V39.0968H90.7103V27Z" stroke="white" stroke-width="3"/>
<path d="M90.7101 2H61.6777V14.0968H90.7101V2Z" stroke="white" stroke-width="3"/>
<path d="M22.1614 27V14.0967H2V27H22.1614Z" stroke="white" stroke-width="3"/>
<path d="M22.1614 52.0004V39.0972H2V52.0004H22.1614Z" stroke="white" stroke-width="3"/>
<path d="M110.871 14.0968V2H90.71V14.0968H110.871Z" stroke="white" stroke-width="3"/>
<path d="M110.871 39.0968V27H90.71V39.0968H110.871Z" stroke="white" stroke-width="3"/>
<path d="M110.871 64.0971V52.0002H90.71V64.0971H110.871Z" stroke="white" stroke-width="3"/>
<path d="M22.1614 77V64.0967H2V77H22.1614Z" stroke="white" stroke-width="3"/>
</svg>
